<?xml version="1.0" encoding="UTF-8"?><!DOCTYPE svg PUBLIC "-//W3C//DTD SVG 1.1//EN"
        "http://www.w3.org/Graphics/SVG/1.1/DTD/svg11.dtd">
<svg xmlns="http://www.w3.org/2000/svg" xmlns:xlink="http://www.w3.org/1999/xlink">
    <defs>
        <filter id="a" x="-3" y="-2" width="55" height="65" filterUnits="userSpaceOnUse"
                color-interpolation-filters="sRGB">
            <feFlood flood-opacity="0" result="BackgroundImageFix"/>
            <feColorMatrix in="SourceAlpha" values="0 0 0 0 0 0 0 0 0 0 0 0 0 0 0 0 0 0 127 0"/>
            <feOffset dy="4"/>
            <feGaussianBlur stdDeviation="5"/>
            <feColorMatrix values="0 0 0 0 0.0941176 0 0 0 0 0.207843 0 0 0 0 0.364706 0 0 0 0.2 0"/>
            <feBlend in2="BackgroundImageFix" result="effect1_dropShadow"/>
            <feBlend in="SourceGraphic" in2="effect1_dropShadow" result="shape"/>
        </filter>
    </defs>
    <symbol id="apple" viewBox="0 0 32 32">
        <path d="M25.361 10.864c-.142.117-2.658 1.618-2.658 4.954 0 3.859 3.201 5.224 3.297 5.258-.015.083-.509 1.87-1.688 3.69-1.051 1.601-2.15 3.2-3.82 3.2s-2.1-1.027-4.029-1.027c-1.88 0-2.548 1.061-4.076 1.061-1.528 0-2.594-1.482-3.82-3.302C7.147 22.56 6 19.24 6 16.088c0-5.055 3.105-7.736 6.161-7.736 1.624 0 2.978 1.129 3.998 1.129.97 0 2.483-1.196 4.33-1.196.7 0 3.216.067 4.872 2.58Zm-5.748-4.72c.764-.959 1.304-2.29 1.304-3.621A2.639 2.639 0 0 0 20.87 2c-1.243.05-2.722.876-3.613 1.971-.7.842-1.354 2.174-1.354 3.523 0 .158.016.316.047.471.11.022.222.033.334.034 1.115 0 2.518-.79 3.329-1.854Z"/>
    </symbol>
    <symbol id="arrow-carriage" viewBox="0 0 15 11">
        <path d="M0 11h15L9.232 1.003c-.77-1.334-2.695-1.334-3.465 0L0 11Z"/>
    </symbol>
    <symbol id="arrow-circle-line" viewBox="0 0 20 20">
        <path fill-rule="evenodd" clip-rule="evenodd"
              d="M2 10c0 4.4 3.6 8 8 8s8-3.6 8-8-3.6-8-8-8-8 3.6-8 8zm-2 0c0 5.5 4.5 10 10 10s10-4.5 10-10S15.5 0 10 0 0 4.5 0 10zm10.7-3.7c-.4.4-.4 1 0 1.4L12 9H6c-.6 0-1 .4-1 1s.4 1 1 1h6.1l-1.3 1.3c-.4.4-.4 1 0 1.4.4.4 1 .4 1.4 0l2.3-2.3c.8-.8.8-2 0-2.8l-2.3-2.3c-.4-.4-1.1-.4-1.5 0z"/>
    </symbol>
    <symbol id="arrow-circle" viewBox="0 0 24 24">
        <path fill-rule="evenodd" clip-rule="evenodd"
              d="M12 20a8 8 0 1 1 0-16 8 8 0 0 1 0 16Zm.728-11.71a1 1 0 0 0-.005 1.415l1.242 1.25H7.999a1 1 0 0 0 0 2h6.054l-1.33 1.34a1 1 0 1 0 1.42 1.41l2.278-2.296a2 2 0 0 0 0-2.818l-2.279-2.296a1 1 0 0 0-1.414-.005ZM12 20a8 8 0 1 1 0-16 8 8 0 0 1 0 16Zm0 2C6.477 22 2 17.523 2 12S6.477 2 12 2s10 4.477 10 10-4.477 10-10 10Z"/>
    </symbol>
    <symbol id="arrow-left-solid" viewBox="0 0 24 24">
        <path fill-rule="evenodd" clip-rule="evenodd"
              d="M1.56 12.12 13.843 2.04c-1.851 2.53-2.922 5.93-3.212 8.904h11.81v2.212H10.63c.29 2.976 1.36 6.513 3.212 9.044L1.56 12.12Z"/>
    </symbol>
    <symbol id="arrow-play-solid" viewBox="0 0 24 24">
        <path d="M5.993 4.952v14.096L18.007 12 5.993 4.952ZM4 4.952c0-1.515 1.69-2.45 3.018-1.671l12.014 7.048a1.927 1.927 0 0 1 0 3.342L7.018 20.719C5.69 21.5 4 20.563 4 19.05V4.951Zm1.993 0L18.007 12 5.993 19.048V4.952Z"/>
    </symbol>
    <symbol id="arrow-play" viewBox="0 0 16 16">
        <path d="M3.795 2.498a.239.239 0 0 0-.361.21v10.585c0 .19.202.306.361.209l8.655-5.293a.246.246 0 0 0 0-.418L3.796 2.498ZM2 2.708C2 1.381 3.418.563 4.533 1.245l8.655 5.292c1.083.662 1.083 2.262 0 2.924l-8.655 5.293C3.418 15.436 2 14.617 2 13.293V2.707Z"/>
    </symbol>
    <symbol id="arrow-short" viewBox="0 0 16 16">
        <path d="M7.326 10.718 4.281 7.644C3.681 7.037 4.106 6 4.955 6h6.09c.85 0 1.274 1.037.674 1.644l-3.045 3.074a.947.947 0 0 1-1.348 0Z"/>
    </symbol>
    <symbol id="arrow" viewBox="0 0 16 16">
        <path d="M10.6 10.7a.846.846 0 0 0 .115 1.125.7.7 0 0 0 1.038-.125l1.87-2.534a1.99 1.99 0 0 0 0-2.332L11.753 4.3a.7.7 0 0 0-1.038-.125A.846.846 0 0 0 10.6 5.3l1.403 1.9H2.738C2.331 7.2 2 7.558 2 8c0 .442.33.8.738.8h9.264l-1.403 1.9Z"/>
    </symbol>
    <symbol id="arrow2" viewBox="0 0 24 24">
        <path d="M7.347 21.747a.977.977 0 0 1-.086-1.411L14.93 12 7.261 3.664a.977.977 0 0 1 .086-1.411 1.06 1.06 0 0 1 1.462.083l7.668 8.335a1.95 1.95 0 0 1 0 2.658L8.81 21.664a1.06 1.06 0 0 1-1.462.083Z"/>
    </symbol>
    <symbol id="awesome" viewBox="0 0 25 25">
        <path d="m19.666 9.503 1.25-2.75 2.75-1.25-2.75-1.25-1.25-2.75-1.25 2.75-2.75 1.25 2.75 1.25 1.25 2.75ZM19.666 15.503l-1.25 2.75-2.75 1.25 2.75 1.25 1.25 2.75 1.25-2.75 2.75-1.25-2.75-1.25-1.25-2.75ZM12.166 10.003l-2.5-5.5-2.5 5.5-5.5 2.5 5.5 2.5 2.5 5.5 2.5-5.5 5.5-2.5-5.5-2.5Zm-1.51 3.49-.99 2.18-.99-2.18-2.18-.99 2.18-.99.99-2.18.99 2.18 2.18.99-2.18.99Z"/>
    </symbol>
    <symbol id="basket-solid" viewBox="0 0 24 24">
        <path d="M2 3c0-.552.453-1 1.011-1h2.156c1.007 0 1.86.732 2.002 1.717L7.5 6h12.478c1.276 0 2.233 1.155 1.983 2.392l-1.618 8A2.017 2.017 0 0 1 18.36 18H8.943a2.015 2.015 0 0 1-2.001-1.717L5.622 7.14 5.166 4H3.011A1.006 1.006 0 0 1 2 3Zm5.788 5 1.155 8h9.416l1.618-8H7.787Zm2.3 12.5c0 .828-.678 1.5-1.516 1.5a1.508 1.508 0 0 1-1.517-1.5c0-.828.68-1.5 1.517-1.5.838 0 1.517.672 1.517 1.5Zm8.595 1.5c.837 0 1.516-.672 1.516-1.5S19.52 19 18.683 19c-.838 0-1.517.672-1.517 1.5s.68 1.5 1.517 1.5Zm-9.74-6L7.788 8h12.19l-1.619 8H8.943Z"/>
    </symbol>
    <symbol id="basket" viewBox="0 0 20 20">
        <g style="enable-background:new 0 0 20 20">
            <path class="st0"
                  d="M.9 2c0-.5.4-.9.9-.9h1.9c.9 0 1.6.6 1.8 1.5l.3 2h10.9c1.1 0 2 1 1.7 2.1l-1.4 7c-.2.8-.9 1.4-1.7 1.4H7c-.9 0-1.6-.6-1.8-1.5L4 5.6l-.3-2.7H1.8c-.5 0-.9-.4-.9-.9zM6 6.4l1 7h8.2l1.4-7H6zm2 10.9c0 .7-.6 1.3-1.3 1.3-.7 0-1.3-.6-1.3-1.3S5.9 16 6.7 16c.7 0 1.3.6 1.3 1.3zm7.5 1.3c.7 0 1.3-.6 1.3-1.3s-.6-1.3-1.3-1.3c-.7 0-1.3.6-1.3 1.3s.6 1.3 1.3 1.3z"/>
        </g>
    </symbol>
    <symbol id="bell" viewBox="0 0 24 24">
        <path d="M18.964 16H5.037c.25-1.635.842-4.715 2.025-7.377C8.3 5.84 9.953 4 12.105 4c2.146 0 3.765 1.835 4.957 4.623 1.14 2.666 1.68 5.75 1.902 7.377Zm-6.86-14C8.61 2 6.473 4.97 5.206 7.82c-1.306 2.94-1.93 6.272-2.182 7.944C2.838 16.985 3.813 18 4.999 18h14c1.17 0 2.146-.99 1.983-2.205-.224-1.664-.792-5.002-2.052-7.949C17.71 4.99 15.613 2 12.105 2ZM7.118 20.61a1.02 1.02 0 0 1 1.33-.53l.002.001.017.007.07.028c.063.025.156.062.273.106.236.088.567.207.947.324.785.244 1.676.454 2.349.454.672 0 1.563-.21 2.349-.454a17.463 17.463 0 0 0 1.29-.458l.016-.007.004-.001a1.019 1.019 0 0 1 1.329.53.995.995 0 0 1-.537 1.31L16.16 21l.396.92-.003.002-.007.003-.025.01a10.074 10.074 0 0 1-.4.156c-.263.1-.633.23-1.058.363-.825.256-1.961.546-2.958.546-.997 0-2.134-.29-2.958-.546a19.532 19.532 0 0 1-1.459-.519l-.024-.01-.007-.003-.004-.001.397-.92-.397.92a.995.995 0 0 1-.536-1.312ZM5.037 16h13.927c-.221-1.628-.763-4.711-1.902-7.377C15.87 5.835 14.252 4 12.105 4 9.953 4 8.3 5.84 7.062 8.623 5.88 11.285 5.287 14.365 5.037 16Z"/>
    </symbol>
    <symbol id="briefcase" viewBox="0 0 24 24">
        <path d="M7.516 11V9H5.19l-.949 11h15.516l-.949-11h-2.325v2c0 .552-.502 1-1.12 1-.62 0-1.122-.448-1.122-1V9H9.758v2c0 .552-.502 1-1.121 1-.62 0-1.121-.448-1.121-1Z"/>
        <path fill-rule="evenodd" clip-rule="evenodd"
              d="M9.758 6.5c0-.933.269-1.55.623-1.92.336-.349.847-.58 1.619-.58s1.283.231 1.619.58c.354.37.623.987.623 1.92V7H9.758v-.5ZM5.19 9H18.809l.949 11H4.242l.949-11Zm2.325-2v-.5c0-1.255.361-2.387 1.163-3.221C9.499 2.425 10.669 2 12 2c1.33 0 2.5.425 3.321 1.279.802.834 1.163 1.966 1.163 3.221V7h2.325c1.172 0 2.146.805 2.236 1.847l.948 11c.1 1.161-.93 2.153-2.235 2.153H4.242c-1.306 0-2.335-.992-2.235-2.153l.948-11C3.045 7.805 4.02 7 5.191 7h2.325Z"/>
    </symbol>
    <symbol id="calendar-range" viewBox="0 0 25 25">
        <path d="M7.5 11.428h2v2h-2v-2Zm14-5v14c0 1.1-.9 2-2 2h-14a2 2 0 0 1-2-2l.01-14c0-1.1.88-2 1.99-2h1v-2h2v2h8v-2h2v2h1c1.1 0 2 .9 2 2Zm-16 2h14v-2h-14v2Zm14 12v-10h-14v10h14Zm-4-7h2v-2h-2v2Zm-4 0h2v-2h-2v2Z"/>
    </symbol>
    <symbol id="calendar" viewBox="0 0 16 16">
        <path fill-rule="evenodd"
              d="M6.11 1.778c0-.43-.332-.778-.74-.778-.409 0-.74.348-.74.778v.605h-.904C2.773 2.383 2 3.195 2 4.198v8.987C2 14.187 2.773 15 3.726 15h8.548c.953 0 1.726-.813 1.726-1.815V4.198c0-1.003-.773-1.815-1.726-1.815h-.904v-.605c0-.43-.331-.778-.74-.778-.408 0-.74.348-.74.778v.605H6.11v-.605Zm6.41 4.753V4.198c0-.144-.11-.26-.246-.26h-.904v.605c0 .43-.331.778-.74.778-.408 0-.74-.348-.74-.778v-.605H6.11v.605c0 .43-.332.778-.74.778-.409 0-.74-.348-.74-.778v-.605h-.904a.253.253 0 0 0-.247.26V6.53h9.041ZM3.48 8.086h9.04v5.1c0 .142-.11.258-.246.258H3.726a.253.253 0 0 1-.247-.259V8.086Z"/>
    </symbol>
    <symbol id="car" viewBox="0 0 20 18">
        <g style="enable-background:new 0 0 20 18">
            <path d="m19.8 6.3-2.6-5.2c-.3-.7-1-1.1-1.8-1.1H4.6c-.7 0-1.4.4-1.8 1.1L.2 6.3c-.1.3-.2.6-.2.9v9.3c0 .8.7 1.5 1.5 1.5S3 17.3 3 16.5V16h13c0 1.1.9 2 2 2s2-.9 2-2V7.2c0-.3-.1-.6-.2-.9zM4.6 2h10.8l2.5 5H2.1l2.5-5zM3 11.5c0-.8.7-1.5 1.5-1.5s1.5.7 1.5 1.5S5.3 13 4.5 13 3 12.3 3 11.5zM15.5 13c-.8 0-1.5-.7-1.5-1.5s.7-1.5 1.5-1.5 1.5.7 1.5 1.5-.7 1.5-1.5 1.5z"
                  style="fill-rule:evenodd;clip-rule:evenodd"/>
        </g>
    </symbol>
    <symbol id="card-line" viewBox="0 0 24 24">
        <path fill-rule="evenodd" clip-rule="evenodd"
              d="M3 7a2 2 0 0 1 2-2h14a2 2 0 0 1 2 2v10a2 2 0 0 1-2 2H5a2 2 0 0 1-2-2V7Zm2 8v2h14v-2H5Zm14-3H5V7h14v5Z"/>
    </symbol>
    <symbol id="card" viewBox="0 0 24 24">
        <path d="M3 7a2 2 0 0 1 2-2h14a2 2 0 0 1 2 2v6H3V7Zm0 10a2 2 0 0 0 2 2h14a2 2 0 0 0 2-2v-2H3v2Z"/>
    </symbol>
    <symbol id="check" viewBox="0 0 16 16">
        <path d="M13.695 3.162c.334.271.404.787.157 1.153l-5.355 7.907c-.579.854-1.68 1.032-2.46.398L2.304 9.582c-.334-.272-.403-.788-.155-1.153.248-.366.72-.441 1.053-.17l3.733 3.038c.112.09.27.065.352-.057l5.355-7.907c.248-.365.72-.442 1.053-.17Z"/>
    </symbol>
    <symbol id="cleaner" viewBox="0 0 20 20">
        <g style="enable-background:new 0 0 20 20">
            <path class="st0"
                  d="M8.4 3.9C5 4.8 3 8.3 3.9 11.6c.9 3.4 4.4 5.4 7.7 4.5 3.4-.9 5.4-4.4 4.5-7.7C15.2 5 11.7 3 8.4 3.9zm1.6 9.8c-.7 0-1.3-.5-1.3-1.3 0-.7.6-1.3 1.3-1.3s1.3.6 1.3 1.3c0 .7-.6 1.3-1.3 1.3z"/>
            <path class="st0"
                  d="M10 .1C4.5.1.1 4.5.1 10s4.4 9.9 9.9 9.9 9.9-4.4 9.9-9.9S15.5.1 10 .1zm2 17.5c-4.2 1.1-8.4-1.4-9.6-5.5C1.3 7.9 3.8 3.6 8 2.5c4.1-1.2 8.4 1.3 9.5 5.5s-1.4 8.4-5.5 9.6z"/>
        </g>
    </symbol>
    <symbol id="clock" viewBox="0 0 24 24">
        <path d="M12 22c5.523 0 10-4.477 10-10S17.523 2 12 2 2 6.477 2 12s4.477 10 10 10Zm8-10a8 8 0 1 1-16 0 8 8 0 0 1 16 0Zm-7-5a1 1 0 1 0-2 0v4.586A2 2 0 0 0 11.586 13l1.707 1.707a1 1 0 0 0 1.414-1.414L13 11.586V7Z"/>
    </symbol>
    <symbol id="close" viewBox="0 0 24 24">
        <path d="M5.667 4.281a.975.975 0 0 0-1.388.017.995.995 0 0 0 .017 1.4l6.4 6.302-6.4 6.302a.995.995 0 0 0-.017 1.4.975.975 0 0 0 1.388.017l6.435-6.336 6.231 6.135a.975.975 0 0 0 1.388-.017.995.995 0 0 0-.017-1.399L13.508 12l6.197-6.102a.995.995 0 0 0 .017-1.4.976.976 0 0 0-1.388-.016l-6.231 6.135L5.667 4.28Z"/>
    </symbol>
    <symbol id="coin" viewBox="0 0 24 24">
        <path fill-rule="evenodd" clip-rule="evenodd"
              d="M4 9.5c0-.109.053-.322.384-.626.332-.306.868-.627 1.614-.917C7.485 7.38 9.606 7 12 7c2.393 0 4.515.38 6.002.957.746.29 1.282.611 1.614.917.331.304.384.517.384.626 0 .109-.053.322-.384.626-.332.306-.868.627-1.614.917C16.514 11.62 14.393 12 12 12c-2.394 0-4.515-.38-6.002-.957-.746-.29-1.282-.611-1.614-.917C4.053 9.822 4 9.61 4 9.5ZM12 5c-2.577 0-4.956.404-6.726 1.093-.883.343-1.665.776-2.244 1.309C2.45 7.934 2 8.642 2 9.5c0 .104.007.205.02.304-.013.063-.02.129-.02.196v4c0 .878.404 1.639.983 2.246.573.603 1.356 1.1 2.247 1.496C7.014 18.535 9.408 19 12 19c2.592 0 4.986-.465 6.77-1.258.89-.396 1.674-.893 2.247-1.496.579-.607.983-1.368.983-2.246v-4c0-.067-.007-.133-.02-.196.013-.099.02-.2.02-.304 0-.858-.45-1.566-1.03-2.098-.58-.533-1.361-.966-2.244-1.309C16.956 5.404 14.577 5 12 5Zm8 7.301a9.017 9.017 0 0 1-1.274.606C16.956 13.596 14.577 14 12 14s-4.956-.404-6.726-1.093A9.015 9.015 0 0 1 4 12.3V14c0 .227.1.518.432.868.337.354.872.719 1.61 1.047C7.516 16.57 9.622 17 12 17c2.379 0 4.484-.43 5.958-1.085.738-.328 1.273-.693 1.61-1.047.333-.35.432-.641.432-.868v-1.699Z"/>
    </symbol>
    <symbol id="column" viewBox="0 0 19 18">
        <g style="enable-background:new 0 0 19 18">
            <path d="M1 .6c-.6 0-1 .4-1 1v14.8c0 .6.4 1 1 1h8.1c.6 0 1-.4 1-1V1.6c0-.6-.4-1-1-1H1zm4.1 14.3c.5 0 .8-.4.8-.8 0-.5-.4-.8-.8-.8s-.8.4-.8.8c-.1.4.3.8.8.8z"
                  style="fill-rule:evenodd;clip-rule:evenodd"/>
            <path d="M15.8 3.4c.3-.3.8-.3 1.1 0 2.8 3.1 2.8 8 0 11.1-.3.3-.8.3-1.1 0-.3-.3-.3-.8 0-1.1 2.3-2.5 2.3-6.6 0-9.1-.3-.2-.3-.7 0-.9z"/>
            <path d="M13.7 5.7c-.3-.3-.8-.3-1.1 0-.3.3-.3.8 0 1.1 1.3 1.2 1.3 3.2 0 4.4-.3.3-.3.8 0 1.1.3.3.8.3 1.1 0 2-1.9 2-4.8 0-6.6z"/>
        </g>
    </symbol>
    <symbol id="comment" viewBox="0 0 16 16">
        <path d="M8.509 3.333c-2.887 0-5.137 2.12-5.137 4.63 0 .731.188 1.423.524 2.039.172.315.086.633.037.776-.06.175-.155.347-.248.496-.175.283-.42.605-.64.893l-.043.057a49.45 49.45 0 0 0-.121.16 30.128 30.128 0 0 0 .514-.211c.359-.15.747-.31 1.085-.422a3.49 3.49 0 0 1 .576-.144c.167-.024.438-.045.698.072l.097.044c.38.173.843.383 1.318.556.531.195 1.002.314 1.34.314 2.887 0 5.136-2.12 5.136-4.63s-2.25-4.63-5.136-4.63Zm-6.492 4.63C2.017 4.623 4.974 2 8.51 2S15 4.622 15 7.963s-2.956 5.963-6.491 5.963c-.59 0-1.25-.191-1.811-.397-.527-.192-1.036-.423-1.41-.593a4.684 4.684 0 0 1-.026-.011h-.009c-.075.012-.188.04-.343.09a15.122 15.122 0 0 0-1.102.434c-.393.163-.828.341-1.2.446a2.502 2.502 0 0 1-.593.104c-.182.006-.504-.017-.76-.26-.307-.292-.269-.668-.227-.846.044-.19.137-.373.222-.52.174-.298.436-.643.667-.947l.026-.034c.236-.31.445-.586.587-.813a2.2 2.2 0 0 0 .076-.132 5.542 5.542 0 0 1-.589-2.484Zm.636 2.376-.004.014a.06.06 0 0 1 .004-.014Z"/>
    </symbol>
    <symbol id="comments" viewBox="0 0 24 24">
        <path d="M12.804 4C8.251 4 4.61 7.58 4.61 11.938c0 1.264.305 2.457.847 3.517.24.471.122.948.048 1.18a4.192 4.192 0 0 1-.378.807c-.274.471-.659 1.01-1.007 1.498l-.068.095c-.152.214-.296.416-.426.606.284-.115.594-.25.924-.397l.18-.08c.567-.252 1.18-.523 1.712-.71.296-.104.61-.197.906-.243.263-.04.687-.074 1.087.12l.154.074c.6.29 1.334.646 2.088.94.842.328 1.59.53 2.128.53 4.553 0 8.195-3.58 8.195-7.937C21 7.58 17.357 4 12.804 4ZM2.452 20h.01-.01Zm.157-8.062C2.61 6.423 7.201 2 12.804 2 18.408 2 23 6.423 23 11.938c0 5.515-4.591 9.938-10.195 9.938-.93 0-1.968-.323-2.854-.668-.832-.324-1.635-.713-2.228-1a21.488 21.488 0 0 0-.048-.024l-.022.003c-.12.02-.301.067-.548.154-.453.159-.989.396-1.576.657l-.17.075c-.622.276-1.308.575-1.892.751a3.71 3.71 0 0 1-.932.175c-.292.01-.786-.033-1.17-.421-.439-.447-.384-1.01-.324-1.282.065-.3.204-.592.336-.835.27-.495.68-1.072 1.047-1.587l.043-.06c.371-.521.706-.99.932-1.379.075-.13.127-.23.16-.305a9.695 9.695 0 0 1-.949-4.192Zm1 4.053-.006.021c.002-.013.005-.021.005-.021Zm1-4.053C4.61 7.58 8.252 4 12.804 4 17.357 4 21 7.58 21 11.938c0 4.357-3.642 7.938-8.195 7.938-.538 0-1.286-.203-2.128-.531-.754-.294-1.487-.65-2.088-.94l-.154-.075c-.4-.193-.824-.16-1.087-.12-.297.047-.61.14-.906.244-.533.187-1.145.459-1.712.71l-.18.08c-.33.146-.64.282-.924.397.13-.19.274-.392.426-.606l.068-.095c.348-.488.733-1.027 1.007-1.498.146-.25.29-.53.378-.807.074-.232.192-.709-.048-1.18a7.698 7.698 0 0 1-.847-3.517Z"
              fill="#7C7B7B"/>
    </symbol>
    <symbol id="compare" viewBox="0 0 33 33">
        <path d="M29.833 4.604a1.333 1.333 0 1 0-2.666 0v24a1.333 1.333 0 1 0 2.666 0v-24Zm-16 5.333a1.333 1.333 0 1 0-2.666 0v18.667a1.333 1.333 0 1 0 2.666 0V9.937Zm-8 8a1.333 1.333 0 1 0-2.666 0v10.667a1.333 1.333 0 1 0 2.666 0V17.937ZM20.5 16.604c.736 0 1.333.597 1.333 1.333v10.667a1.333 1.333 0 1 1-2.666 0V17.937c0-.736.597-1.333 1.333-1.333Z"/>
    </symbol>
    <symbol id="contract" viewBox="0 0 24 24">
        <path fill-rule="evenodd" clip-rule="evenodd"
              d="M18 4H6v16h12V4ZM9 7a1 1 0 0 0 0 2h2a1 1 0 1 0 0-2H9Zm-1 5a1 1 0 0 1 1-1h4a1 1 0 1 1 0 2H9a1 1 0 0 1-1-1Zm1 3a1 1 0 1 0 0 2h6a1 1 0 1 0 0-2H9ZM4 4a2 2 0 0 1 2-2h12a2 2 0 0 1 2 2v16a2 2 0 0 1-2 2H6a2 2 0 0 1-2-2V4Zm14 0H6v16h12V4Z"/>
    </symbol>
    <symbol id="copy-inside" viewBox="0 0 24 24">
        <path fill-rule="evenodd" clip-rule="evenodd"
              d="M12 2a2 2 0 0 0-2 2v3a1 1 0 1 0 2 0V4h8v8h-3a1 1 0 1 0 0 2h3a2 2 0 0 0 2-2V4a2 2 0 0 0-2-2h-8ZM4 20v-8h8v8H4Zm-2-9a1 1 0 0 1 1-1h10a1 1 0 0 1 1 1v10a1 1 0 0 1-1 1H3a1 1 0 0 1-1-1V11Z"/>
    </symbol>
    <symbol id="copy" viewBox="0 0 14 14">
        <path d="M7.3 5.7H1.4c-.5 0-1 .4-1 1v5.8c0 .5.4 1 1 1h5.8c.5 0 1-.4 1-1V6.7c.1-.5-.4-1-.9-1zM11.8.5H7.3c-.9 0-1.7.8-1.7 1.7v1.6c0 .4.3.7.7.7h1.3c1 0 1.9.8 1.9 1.9v1.3c0 .4.3.7.7.7h1.6c.9 0 1.7-.8 1.7-1.7V2.2c0-1-.7-1.7-1.7-1.7z"/>
    </symbol>
    <symbol id="delivery-express" viewBox="0 0 17 16">
        <path d="M4.585 2.893a.739.739 0 0 0-.425.511.709.709 0 0 0 .17.632l2.582 2.845-.93.414-1.371-.557a.798.798 0 0 0-.623.01l-1.665.743a.736.736 0 0 0-.435.563.715.715 0 0 0 .258.654l3.391 2.796c.228.188.55.23.823.109L14.686 7.9a1.873 1.873 0 0 0 1.026-1.145 2.024 2.024 0 0 0-.12-1.502 2.164 2.164 0 0 0-1.127-1.053 2.013 2.013 0 0 0-1.576.015l-1.853.826L7.235 2.16a.794.794 0 0 0-.8-.09l-1.85.824Zm4.149 3.761L6.152 3.81l.502-.224 3.8 2.884a.794.794 0 0 0 .8.09l2.282-1.017a.419.419 0 0 1 .33.006c.133.053.261.166.338.324a.621.621 0 0 1 .043.456.39.39 0 0 1-.207.246l-7.878 3.511-2.12-1.747.284-.126 1.371.557c.2.08.427.077.623-.01l2.159-.963a.739.739 0 0 0 .425-.51.709.709 0 0 0-.17-.633Zm-6.165 5.882c-.423 0-.765.328-.765.732 0 .404.342.732.765.732h12.25c.422 0 .765-.328.765-.732 0-.404-.343-.732-.766-.732H2.57ZM6.152 3.81l2.582 2.844c.157.174.22.408.17.632a.739.739 0 0 1-.425.511L6.32 8.76a.798.798 0 0 1-.623.01l-1.371-.556-.283.126 2.119 1.747 7.878-3.511a.39.39 0 0 0 .207-.246.621.621 0 0 0-.043-.456.663.663 0 0 0-.337-.324.419.419 0 0 0-.33-.006L11.253 6.56a.794.794 0 0 1-.8-.09l-3.8-2.884-.502.224Z"/>
    </symbol>
    <symbol id="delivery-line" viewBox="0 0 20 15">
        <g style="enable-background:new 0 0 20 15">
            <path d="M2 0C.9 0 0 .9 0 2v9c0 .6.4 1 1 1 0 1.7 1.3 3 3 3s3-1.3 3-3h4c0 1.7 1.3 3 3 3s3-1.3 3-3h1c1.1 0 2-.9 2-2V7.1c0-.5-.2-1.1-.6-1.4l-2.1-2.1c-.4-.4-.9-.6-1.4-.6H14V2c0-1.1-.9-2-2-2H2zm12.8 11.4s0 .1.1.1c.1.2.1.3.1.5 0 .6-.4 1-1 1s-1-.4-1-1 .4-1 1-1c.3 0 .7.2.8.4zm1.4-1.4H18V7.1L15.9 5H14v4c.9 0 1.7.4 2.2 1zM12 9.8V2H2v7.8c.5-.5 1.2-.8 2-.8.9 0 1.7.4 2.2 1h5.5c.1-.1.2-.2.3-.2zM4 11c-.6 0-1 .4-1 1s.4 1 1 1 1-.4 1-1-.4-1-1-1z"/>
        </g>
    </symbol>
    <symbol id="delivery-solid" viewBox="0 0 65 64">
        <path fill-rule="evenodd" clip-rule="evenodd"
              d="M10.722 18.885c0-.543.465-.983 1.037-.983h24.89c.572 0 1.036.44 1.036.983v18.908c-.159.14-.312.286-.46.437H22.244c-1.578-1.614-3.833-2.623-6.337-2.623-1.945 0-3.74.61-5.185 1.638v-18.36Zm24.204 25.246H24.543C24.36 48.506 20.564 52 15.907 52c-4.663 0-8.463-3.503-8.635-7.886C5.713 43.954 4.5 42.7 4.5 41.18V18.885C4.5 15.083 7.75 12 11.76 12h24.888c4.01 0 7.26 3.083 7.26 6.885v.984h4.267c1.877 0 3.681.69 5.034 1.924l5.066 4.625c1.422 1.298 2.225 3.09 2.225 4.96v5.868c0 3.802-3.25 6.885-7.26 6.885h-1.043C52.016 48.506 48.219 52 43.562 52s-8.454-3.494-8.636-7.869Zm8.981-8.518c2.365.088 4.486 1.078 5.991 2.617h3.343c.572 0 1.037-.44 1.037-.984v-5.867a.96.96 0 0 0-.318-.709l-5.066-4.625a1.067 1.067 0 0 0-.72-.275h-4.267v9.843Zm1.651 6.893a2.456 2.456 0 0 0-1.996-.998c-1.337 0-2.42 1.028-2.42 2.295 0 1.268 1.083 2.295 2.42 2.295 1.336 0 2.42-1.027 2.42-2.295 0-.357-.087-.695-.24-.996a2.936 2.936 0 0 1-.184-.3Zm-29.65-.998c-1.337 0-2.42 1.028-2.42 2.295 0 1.268 1.083 2.295 2.42 2.295 1.336 0 2.42-1.027 2.42-2.295 0-1.267-1.084-2.295-2.42-2.295Z"/>
    </symbol>
    <symbol id="delivery" viewBox="0 0 16 16">
        <path d="M2.556 4.721c0-.136.116-.246.259-.246h6.222c.143 0 .26.11.26.246v4.727a2.12 2.12 0 0 0-.116.11H5.436a2.21 2.21 0 0 0-1.584-.656c-.487 0-.935.152-1.296.41v-4.59Zm6.05 6.312H6.012C5.965 12.127 5.016 13 3.85 13s-2.115-.876-2.158-1.972c-.39-.04-.693-.353-.693-.733V4.721C1 3.771 1.813 3 2.815 3h6.222c1.002 0 1.815.77 1.815 1.721v.246h1.067c.469 0 .92.173 1.258.481l1.267 1.157c.355.324.556.772.556 1.24V9.31c0 .951-.813 1.722-1.815 1.722h-.26C12.878 12.127 11.93 13 10.764 13c-1.164 0-2.113-.873-2.158-1.967Zm2.246-2.13c.591.022 1.121.27 1.498.654h.835c.143 0 .26-.11.26-.246V7.845a.24.24 0 0 0-.08-.177L12.098 6.51a.267.267 0 0 0-.18-.068h-1.066v2.46Zm.413 1.723a.614.614 0 0 0-.5-.249c-.334 0-.604.257-.604.574 0 .317.27.574.604.574.335 0 .605-.257.605-.574a.546.546 0 0 0-.06-.25.712.712 0 0 1-.045-.075Zm-7.413-.249c-.334 0-.605.257-.605.574 0 .317.27.574.605.574.334 0 .605-.257.605-.574 0-.317-.271-.574-.605-.574ZM2.815 4.475c-.143 0-.26.11-.26.246v4.59c.362-.257.81-.41 1.297-.41.626 0 1.19.253 1.584.656h3.745a2.12 2.12 0 0 1 .115-.109V4.721a.253.253 0 0 0-.259-.246H2.815Zm8.037 4.428c.591.022 1.121.27 1.498.654h.835c.143 0 .26-.11.26-.246V7.845a.24.24 0 0 0-.08-.177L12.098 6.51a.267.267 0 0 0-.18-.068h-1.066v2.46Z"/>
    </symbol>
    <symbol id="discount-solid" viewBox="0 0 64 64">
        <path d="M39.874 8.548c-3.498-6.064-12.25-6.064-15.748 0a2.79 2.79 0 0 1-3.14 1.301C14.222 8.035 8.034 14.223 9.848 20.985a2.79 2.79 0 0 1-1.3 3.14c-6.065 3.499-6.065 12.251 0 15.75a2.79 2.79 0 0 1 1.3 3.14c-1.814 6.762 4.374 12.95 11.136 11.136a2.79 2.79 0 0 1 3.14 1.3c3.499 6.065 12.251 6.065 15.75 0a2.79 2.79 0 0 1 3.14-1.3c6.762 1.814 12.95-4.374 11.136-11.136a2.79 2.79 0 0 1 1.3-3.14c6.065-3.499 6.065-12.251 0-15.75a2.79 2.79 0 0 1-1.3-3.14c1.814-6.762-4.374-12.95-11.136-11.136a2.79 2.79 0 0 1-3.14-1.3Zm-10.291 3.148c1.074-1.862 3.76-1.862 4.834 0a9.09 9.09 0 0 0 10.23 4.238c2.077-.557 3.977 1.342 3.42 3.418a9.09 9.09 0 0 0 4.237 10.23c1.862 1.075 1.862 3.761 0 4.835a9.09 9.09 0 0 0-4.238 10.23c.557 2.077-1.342 3.977-3.418 3.42a9.09 9.09 0 0 0-10.23 4.237c-1.075 1.862-3.761 1.862-4.835 0a9.09 9.09 0 0 0-10.23-4.238c-2.077.557-3.977-1.342-3.42-3.418a9.09 9.09 0 0 0-4.237-10.23c-1.862-1.075-1.862-3.761 0-4.835a9.09 9.09 0 0 0 4.238-10.23c-.557-2.077 1.342-3.977 3.418-3.42a9.09 9.09 0 0 0 10.23-4.237ZM26.4 29.2a2.8 2.8 0 1 0 0-5.6 2.8 2.8 0 0 0 0 5.6Zm14 8.4a2.8 2.8 0 1 1-5.6 0 2.8 2.8 0 0 1 5.6 0Zm2.227-11.772a3.15 3.15 0 0 0-4.455-4.455l-16.799 16.8a3.15 3.15 0 1 0 4.455 4.454l16.799-16.8Z"/>
    </symbol>
    <symbol id="discount" viewBox="0 0 25 24">
        <path fill-rule="evenodd" clip-rule="evenodd"
              d="M13.37 4.504a1 1 0 0 0-1.734 0l-.152.264a3 3 0 0 1-3.377 1.398l-.294-.079a1 1 0 0 0-1.226 1.226l.08.294a3 3 0 0 1-1.4 3.377l-.263.152a1 1 0 0 0 0 1.733l.264.152a3 3 0 0 1 1.398 3.377l-.079.295a1 1 0 0 0 1.226 1.225l.294-.079a3 3 0 0 1 3.377 1.399l.152.264a1 1 0 0 0 1.733 0l.152-.264a3 3 0 0 1 3.377-1.399l.295.079a1 1 0 0 0 1.225-1.225l-.079-.295a3 3 0 0 1 1.399-3.377l.264-.152a1 1 0 0 0 0-1.733l-.264-.152a3 3 0 0 1-1.399-3.377l.079-.294a1 1 0 0 0-1.225-1.226l-.295.08a3 3 0 0 1-3.377-1.4l-.152-.263Zm-2.868 6.498a1 1 0 1 0 0-2 1 1 0 0 0 0 2Zm5.002 3.001a1 1 0 1 1-2.001 0 1 1 0 0 1 2 0Zm.707-4.294a1 1 0 0 0-1.415-1.414l-6.001 6.001a1 1 0 1 0 1.414 1.415l6.002-6.002ZM9.903 3.504c1.155-2.002 4.044-2.002 5.199 0l.152.264a1 1 0 0 0 1.126.466l.294-.079c2.232-.599 4.275 1.444 3.676 3.676l-.079.294a1 1 0 0 0 .466 1.126l.264.152c2.002 1.155 2.002 4.044 0 5.199l-.264.152a1 1 0 0 0-.466 1.126l.08.294c.598 2.232-1.445 4.275-3.677 3.676l-.294-.079a1 1 0 0 0-1.126.466l-.152.264c-1.155 2.002-4.044 2.002-5.199 0l-.152-.264a1 1 0 0 0-1.126-.466l-.294.08c-2.232.598-4.275-1.445-3.676-3.677l.08-.294a1 1 0 0 0-.467-1.126l-.264-.152c-2.002-1.155-2.002-4.044 0-5.199l.264-.152a1 1 0 0 0 .466-1.126l-.079-.294C4.056 5.6 6.1 3.556 8.331 4.155l.294.08a1 1 0 0 0 1.126-.467l.152-.264Zm3.466 1a1 1 0 0 0-1.733 0l-.152.264a3 3 0 0 1-3.377 1.398l-.294-.079a1 1 0 0 0-1.226 1.226l.08.294a3 3 0 0 1-1.4 3.377l-.263.152a1 1 0 0 0 0 1.733l.264.152a3 3 0 0 1 1.398 3.377l-.079.295a1 1 0 0 0 1.226 1.225l.294-.079a3 3 0 0 1 3.377 1.399l.152.264a1 1 0 0 0 1.733 0l.152-.264a3 3 0 0 1 3.377-1.399l.295.079a1 1 0 0 0 1.225-1.225l-.079-.295a3 3 0 0 1 1.399-3.377l.264-.152a1 1 0 0 0 0-1.733l-.264-.152a3 3 0 0 1-1.399-3.377l.079-.294a1 1 0 0 0-1.225-1.226l-.295.08a3 3 0 0 1-3.377-1.4l-.152-.263Z"/>
    </symbol>
    <symbol id="doc" viewBox="0 0 32 40">
        <g style="enable-background:new 0 0 32 40">
            <path d="M28 0H4C1.8 0 0 1.8 0 4v32c0 2.2 1.8 4 4 4h24c2.2 0 4-1.8 4-4V4c0-2.2-1.8-4-4-4zm-6 30H10c-1.1 0-2-.9-2-2s.9-2 2-2h12c1.1 0 2 .9 2 2s-.9 2-2 2zM10 18h8c1.1 0 2 .9 2 2s-.9 2-2 2h-8c-1.1 0-2-.9-2-2s.9-2 2-2zm-2-6c0-1.1.9-2 2-2h4c1.1 0 2 .9 2 2s-.9 2-2 2h-4c-1.1 0-2-.9-2-2z"
                  style="fill-rule:evenodd;clip-rule:evenodd"/>
        </g>
    </symbol>
    <symbol id="dots" viewBox="0 0 2 12">
        <path d="M2 1c0 .6-.4 1-1 1s-1-.4-1-1 .4-1 1-1 1 .4 1 1zm0 5c0 .6-.4 1-1 1s-1-.4-1-1 .4-1 1-1 1 .4 1 1zm-1 6c.6 0 1-.4 1-1s-.4-1-1-1-1 .4-1 1 .4 1 1 1z"/>
    </symbol>
    <symbol id="download" viewBox="0 0 16 16">
        <path d="M2 10.857c0-.472.371-.854.83-.854.457 0 .829.382.829.854v1.152a.28.28 0 0 0 .276.284h8.13a.28.28 0 0 0 .276-.284v-1.152c0-.472.372-.854.83-.854.458 0 .829.382.829.854v1.152c0 1.1-.867 1.991-1.935 1.991h-8.13C2.866 14 2 13.109 2 12.01v-1.153Zm8.335-4.838L8.802 4.442v5.724a.842.842 0 0 1-.83.854.842.842 0 0 1-.829-.854V4.442L5.61 6.019a.813.813 0 0 1-1.173 0 .87.87 0 0 1 0-1.207l2.167-2.229a1.897 1.897 0 0 1 2.737 0l2.167 2.23a.87.87 0 0 1 0 1.206.813.813 0 0 1-1.173 0Z"/>
    </symbol>
    <symbol id="e" viewBox="0 0 15 15">
        <g style="enable-background:new 0 0 15 15">
            <path d="M10.1 4.2c.5-.2.8-.7.6-1.2-.1-.6-.7-.9-1.2-.7-.5.2-.8.7-.7 1.2.2.6.8.8 1.3.7zM12.7 2.9c.5-.2.8-.7.6-1.2-.2-.5-.7-.8-1.2-.7-.5.2-.8.7-.7 1.2.2.5.8.8 1.3.7z"/>
            <path d="M12.7 4.3c-.9-.3-1.6.2-1.8.6-.2.4-.2.8-.1 1.2.9 2.5.7 5.2-1.6 5.8 1.2-4.7-.5-8.3-3.9-8.3S.9 6.4.9 8.5c0 2.9 2 6.3 6.6 6.3 6.8 0 7.3-6.5 6.1-9.6-.3-.5-.6-.7-.9-.9zm-6 7.7C4 11.4 4 9.1 4 8.5c0-1.2.3-2.3 1.3-2.3 1.8 0 2.1 3.7 1.4 5.8z"/>
        </g>
    </symbol>
    <symbol id="edit-solid" viewBox="0 0 25 24">
        <path d="M20.511 2.586a2 2 0 0 0-2.662-.148L6.43 11.564a2 2 0 0 0-.532.651l-1.46 2.85c-.885 1.73.964 3.58 2.693 2.694l2.95-1.513c.12-.06.232-.133.336-.217L21.75 6.97a2.002 2.002 0 0 0 .166-2.979l-1.405-1.406Zm-1.414 1.415 1.405 1.406L9.17 14.465l-2.95 1.513 1.46-2.85L19.096 4ZM3.5 20A1 1 0 0 0 3.5 22h18a1 1 0 0 0 0-2.001h-18ZM20.502 5.407l-1.405-1.406-11.419 9.127-1.46 2.85 2.951-1.513 11.333-9.058Z"/>
    </symbol>
    <symbol id="edit" viewBox="0 0 16 16">
        <path d="M13.818 1.536a1.803 1.803 0 0 0-2.416-.136L3.808 7.522c-.201.162-.366.365-.483.596l-.486.958c-.804 1.582.874 3.275 2.442 2.464l1.055-.545a1.82 1.82 0 0 0 .305-.199l7.506-6.05a1.842 1.842 0 0 0 .151-2.726l-.48-.484Zm-1.445 1.09a.257.257 0 0 1 .345.02l.48.484c.11.11.1.292-.021.39L5.67 9.57a.259.259 0 0 1-.043.028l-1.055.545c-.224.116-.464-.126-.349-.352l.486-.958a.261.261 0 0 1 .07-.085l7.594-6.121ZM1.778 13.43a.781.781 0 0 0-.778.785c0 .434.348.785.778.785h12.444c.43 0 .778-.351.778-.785a.781.781 0 0 0-.778-.785H1.778Z"/>
    </symbol>
    <symbol id="error" viewBox="0 0 16 16">
        <path d="M2.556 8a5.444 5.444 0 1 1 10.888 0A5.444 5.444 0 0 1 2.556 8ZM8 1a7 7 0 1 0 0 14A7 7 0 0 0 8 1Zm2.505 9.505a.778.778 0 0 1-1.1 0L8 9.1l-1.405 1.405a.778.778 0 1 1-1.1-1.1L6.9 8 5.495 6.595a.778.778 0 0 1 1.1-1.1L8 6.9l1.406-1.405a.778.778 0 0 1 1.1 1.1L9.1 8l1.405 1.405a.778.778 0 0 1 0 1.1Z"/>
    </symbol>
    <symbol id="express-solid" viewBox="0 0 25 24">
        <path d="M14.665 2.043a1 1 0 0 1 .71.957v6.714H18.5a1 1 0 0 1 .831 1.556l-6.875 10.286A1 1 0 0 1 10.625 21v-6.714H7.5a1 1 0 0 1-.831-1.556l6.875-10.286a1 1 0 0 1 1.121-.4ZM9.371 12.286h2.254a1 1 0 0 1 1 1v4.418l4.004-5.99h-2.254a1 1 0 0 1-1-1V6.296l-4.004 5.99Zm2.254 0H9.371l4.004-5.99v4.418a1 1 0 0 0 1 1h2.254l-4.004 5.99v-4.418a1 1 0 0 0-1-1Z"/>
    </symbol>
    <symbol id="express" viewBox="0 0 24 24">
        <path d="M14.165 2.043a1 1 0 0 1 .71.957v6.714H18a1 1 0 0 1 .831 1.556l-6.875 10.286A1 1 0 0 1 10.125 21v-6.714H7a1 1 0 0 1-.831-1.556l6.875-10.286a1 1 0 0 1 1.121-.4ZM8.871 12.286h2.254a1 1 0 0 1 1 1v4.418l4.004-5.99h-2.254a1 1 0 0 1-1-1V6.296l-4.004 5.99Z"/>
    </symbol>
    <symbol id="eye" viewBox="0 0 14 10">
        <g style="enable-background:new 0 0 14 10">
            <path d="M13.3 3.6c-.4-.6-.9-1.1-1.5-1.6-1.2-1-3-2-4.8-2-1.8 0-3.5.9-4.8 2-.6.5-1.1 1.1-1.5 1.6-.2.3-.4.6-.5.8-.1.3-.2.6-.2.9 0 .6.3 1.2.7 1.6.4.5.9 1 1.6 1.4C3.5 9.2 5.2 10 7 10c1.8 0 3.5-.7 4.7-1.6.6-.4 1.2-1 1.6-1.5.4-.5.7-1 .7-1.6 0-.6-.3-1.2-.7-1.7zM4.6 5c0-1.4 1.1-2.5 2.4-2.5 1.3 0 2.4 1.1 2.4 2.5S8.3 7.5 7 7.5C5.7 7.5 4.6 6.4 4.6 5z"/>
            <path d="M7 4c-.5 0-.9.5-.9 1s.4 1 .9 1 .9-.4.9-1c0-.5-.4-1-.9-1z"/>
        </g>
    </symbol>
    <symbol id="facebook" viewBox="0 0 12 22">
        <g style="enable-background:new 0 0 12 22">
            <path d="M7.6 21.5v-9.6h3.1l.5-3.7H7.6V5.8c0-1.1.3-1.8 1.8-1.8h1.9V.6C10.4.5 9.5.4 8.5.5 5.8.5 3.9 2.2 3.9 5.4v2.7H.7v3.7h3.1v9.6h3.8z"/>
        </g>
    </symbol>
    <symbol id="favorite-stroke" viewBox="0 0 25 24">
        <path d="M14.52 2.51A5.217 5.217 0 0 1 16.762 2c.774 0 1.537.175 2.242.51a5.749 5.749 0 0 1 1.862 1.424 6.54 6.54 0 0 1 1.214 2.08c.278.77.42 1.59.42 2.418 0 .827-.142 1.648-.42 2.418a6.54 6.54 0 0 1-1.214 2.08l-7.613 8.727a1 1 0 0 1-1.507 0L4.134 12.93C3.076 11.716 2.5 10.097 2.5 8.432s.576-3.285 1.634-4.498c1.062-1.218 2.534-1.933 4.103-1.933 1.57 0 3.042.715 4.104 1.933.03.036.06.074.085.114l.074.113.073-.113a.997.997 0 0 1 .086-.114A5.75 5.75 0 0 1 14.52 2.51ZM16.762 4c-.47 0-.94.106-1.384.317-.425.202-.823.499-1.167.881l-.872 1.346a1 1 0 0 1-1.678 0l-.872-1.346c-.71-.786-1.628-1.197-2.552-1.197-.943 0-1.881.428-2.596 1.248C4.923 6.072 4.5 7.216 4.5 8.432c0 1.216.423 2.36 1.141 3.183L12.5 19.48l6.858-7.864c.355-.406.643-.896.84-1.444.199-.548.302-1.14.302-1.74 0-.599-.103-1.19-.301-1.738a4.542 4.542 0 0 0-.84-1.444 3.753 3.753 0 0 0-1.213-.932A3.217 3.217 0 0 0 16.762 4Z"/>
    </symbol>
    <symbol id="favorites" viewBox="0 0 26 26">
        <path d="M15.189 3.748a6.178 6.178 0 0 1 6.874 1.388 6.267 6.267 0 0 1 1.315 2.027 6.33 6.33 0 0 1 0 4.716 6.267 6.267 0 0 1-1.315 2.028l-8.247 8.509a1.138 1.138 0 0 1-.816.334c-.313 0-.61-.122-.817-.334l-8.246-8.51a6.302 6.302 0 0 1-1.77-4.385c0-1.623.623-3.202 1.77-4.385A6.189 6.189 0 0 1 8.382 3.25c1.7 0 3.295.697 4.445 1.885a.996.996 0 0 1 .093.11l.08.111.08-.11a.994.994 0 0 1 .092-.111 6.202 6.202 0 0 1 2.017-1.388Z"/>
    </symbol>
    <symbol id="filter" viewBox="0 0 16 16">
        <g fill="#747474">
            <path d="M3.938 3.16a.605.605 0 0 1 1.21-.005v.011a.605.605 0 0 1-1.21-.006Zm2.621.778a2.161 2.161 0 0 1-4.032 0h-.75a.778.778 0 0 1 0-1.555h.75a2.161 2.161 0 0 1 4.032 0h7.663a.778.778 0 0 1 0 1.555H6.56ZM1 8c0-.43.348-.778.778-.778h4.897a2.161 2.161 0 0 1 4.033 0h3.514a.778.778 0 0 1 0 1.556h-3.514a2.161 2.161 0 0 1-4.033 0H1.778A.778.778 0 0 1 1 8Zm7.691-.605c.333 0 .602.268.605.6v.01a.605.605 0 1 1-.605-.61ZM1 12.84c0-.43.348-.777.778-.777h9.045a2.161 2.161 0 1 1 0 1.555H1.778A.778.778 0 0 1 1 12.84Zm11.235 0a.605.605 0 1 1 1.21 0 .605.605 0 0 1-1.21 0Z"/>
        </g>
    </symbol>
    <symbol id="fire" viewBox="0 0 16 16">
        <path d="M8.358.001A.383.383 0 0 1 8.6.384c-.02 1.541.585 2.828 1.627 3.937.501.535 1.008 1.07 1.49 1.625 1.092 1.257 1.575 2.738 1.614 4.39.063 2.678-1.642 4.958-4.244 5.629-.034.009-.067.024-.1.036h-.189c-.254-.167-.293-.303-.135-.572.266-.454.306-.9-.018-1.343a1.212 1.212 0 0 0-2.187.649c-.01.25.084.48.214.69.09.147.128.288.014.433-.114.146-.257.135-.414.095-1.402-.36-2.58-1.077-3.436-2.248-.97-1.322-1.09-2.753-.384-4.228.27-.566.618-1.096.94-1.637.321-.54.645-1.094.778-1.727.077-.357.089-.725.035-1.086-.024-.167.004-.304.155-.392.15-.087.278-.04.406.055.53.395.967.857 1.131 1.52.118.476.057.95-.027 1.424a24.47 24.47 0 0 0-.181 1.155c-.046.35.117.603.417.773.806.458 1.742-.048 1.85-.985.07-.614-.09-1.177-.34-1.722-.26-.562-.542-1.114-.8-1.676-.237-.514-.399-1.05-.43-1.62-.045-.862.226-1.635.716-2.327.275-.39.606-.741.915-1.107.048-.046.1-.088.155-.125l.187.001Z"/>
    </symbol>
    <symbol id="free-price" viewBox="0 0 16 16">
        <path d="M1 8a7 7 0 0 1 11.264-5.552l-2.079 2.08c-.424-.288-.974-.448-1.613-.448h-2.22a.795.795 0 0 0-.816.816v2.448h-.372a.66.66 0 0 0-.672.684.66.66 0 0 0 .672.684h.372v.464l-.291.292h-.08a.64.64 0 0 0-.655.735l-2.062 2.061A6.97 6.97 0 0 1 1 8Zm2.409 5.284a7 7 0 0 0 9.875-9.875l-2.26 2.259c.069.224.104.468.104.728 0 1.392-1.02 2.316-2.556 2.316H7.98l-.756.756h2.392c.384 0 .66.276.66.648s-.276.648-.66.648h-2.46v.504a.795.795 0 0 1-.816.816.792.792 0 0 1-.804-.816v-.112L3.41 13.284Zm5.689-7.67-1.73 1.73h-.212V5.448h1.308c.25 0 .465.06.634.167Z"/>
    </symbol>
    <symbol id="gift" viewBox="0 0 24 24">
        <path d="M17.5 13.076v6.925H13v-6.925h4.5Zm-6.5 0v6.925H6.5v-6.925H11ZM7.264 4.457c.035-.101.167-.283.575-.359.4-.074.958-.011 1.556.265.597.276 1.04.677 1.286 1.05.253.381.24.619.206.72-.035.1-.166.283-.575.359-.4.073-.958.011-1.556-.265-.597-.277-1.04-.677-1.286-1.05-.253-.381-.24-.619-.206-.72Zm9.472 0c-.035-.101-.166-.283-.575-.359-.4-.074-.958-.011-1.556.265-.597.276-1.04.677-1.286 1.05-.253.381-.24.619-.206.72.035.1.166.283.575.359.4.073.958.011 1.556-.265.597-.277 1.04-.677 1.286-1.05.252-.381.24-.619.206-.72Zm2.757 6.619H4V9.109h16v1.967h-.507Zm-2.757-6.619c-.035-.101-.166-.283-.575-.359-.4-.074-.958-.011-1.556.265-.597.276-1.04.677-1.286 1.05-.253.381-.24.619-.206.72.035.1.166.283.575.359.4.073.958.011 1.556-.265.597-.277 1.04-.677 1.286-1.05.252-.381.24-.619.206-.72Zm-2.779-1.986c.904-.418 1.85-.564 2.666-.414.808.15 1.607.625 1.928 1.56.32.937.021 1.92-.478 2.673a4.793 4.793 0 0 1-.69.82H20a2 2 0 0 1 2 2v1.966a2 2 0 0 1-2 2h-.5v6.925a2 2 0 0 1-2 2h-11a2 2 0 0 1-2-2v-6.925H4a2 2 0 0 1-2-2V9.109a2 2 0 0 1 2-2h2.617a4.79 4.79 0 0 1-.69-.819c-.5-.753-.798-1.736-.478-2.672.32-.936 1.12-1.412 1.928-1.56.816-.151 1.762-.005 2.666.413.779.36 1.46.892 1.957 1.52a5.395 5.395 0 0 1 1.957-1.52ZM17.5 20v-6.925h-11v6.925h11Zm1.993-8.925H4V9.109h16v1.967h-.507ZM7.264 4.457c.035-.101.167-.283.575-.359.4-.074.958-.011 1.556.265.597.276 1.04.677 1.286 1.05.253.381.24.619.206.72-.035.1-.166.283-.575.359-.4.073-.958.011-1.556-.265-.597-.277-1.04-.677-1.286-1.05-.253-.381-.24-.619-.206-.72Z"/>
    </symbol>
    <symbol id="gmail" viewBox="0 0 32 32">
        <path d="M29.728 13.258H28.6V13.2H16v5.6h7.912c-1.154 3.26-4.256 5.6-7.912 5.6a8.4 8.4 0 0 1 0-16.8c2.141 0 4.09.808 5.573 2.127l3.96-3.96C23.032 3.437 19.686 2 16 2 8.268 2 2 8.268 2 16c0 7.731 6.268 14 14 14 7.731 0 14-6.269 14-14 0-.939-.097-1.855-.272-2.742ZM3.614 9.484l4.6 3.373A8.396 8.396 0 0 1 16 7.6c2.141 0 4.09.808 5.573 2.127l3.96-3.96C23.033 3.437 19.688 2 16 2 10.623 2 5.96 5.036 3.614 9.484ZM16 30c3.616 0 6.901-1.384 9.386-3.634l-4.333-3.667A8.337 8.337 0 0 1 16 24.4c-3.642 0-6.734-2.322-7.898-5.562l-4.566 3.517C5.853 26.89 10.56 30 16 30Zm13.728-16.743H28.6V13.2H16v5.6h7.912a8.429 8.429 0 0 1-2.86 3.9l.001-.002 4.333 3.667C25.08 26.643 30 23 30 16c0-.939-.097-1.855-.272-2.742Z"/>
    </symbol>
    <symbol id="google" viewBox="0 0 22 22">
        <g style="enable-background:new 0 0 22 22">
            <path d="M21.3 8.9H11v4.2h5.9c-.9 2.4-3.2 4.2-5.9 4.2-3.5 0-6.3-2.8-6.3-6.3S7.5 4.7 11 4.7c1.6 0 3.1.6 4.2 1.6l3-3C16.3 1.6 13.8.5 11.1.5 5.2.5.5 5.2.5 11S5.2 21.5 11 21.5 21.5 16.8 21.5 11c0-.7-.1-1.4-.2-2.1z"/>
            <path d="m1.7 6.1 3.4 2.5c1-2.3 3.3-3.9 5.9-3.9 1.6 0 3.1.6 4.2 1.6l3-3C16.3 1.6 13.8.5 11.1.5 7 .5 3.5 2.8 1.7 6.1zM11 21.5c2.7 0 5.2-1 7-2.7L14.8 16c-1.1.8-2.4 1.3-3.8 1.3-2.7 0-5-1.7-5.9-4.2l-3.4 2.6c1.7 3.5 5.2 5.8 9.3 5.8z"/>
            <path d="M21.3 8.9H11v4.2h5.9c-.4 1.2-1.2 2.2-2.1 2.9l3.2 2.8c-.2.2 3.5-2.5 3.5-7.8 0-.7-.1-1.4-.2-2.1z"/>
        </g>
    </symbol>
    <symbol id="history" viewBox="0 0 16 16">
        <path d="M8 14.666A6.667 6.667 0 1 0 3.754 2.861l-.005-.006-.065.064a6.707 6.707 0 0 0-.435.406l.038-.423a.519.519 0 0 0-1.032-.093l-.088.966A1.21 1.21 0 0 0 3.48 5.089l.966-.087A.518.518 0 0 0 4.5 3.976 5.333 5.333 0 1 1 2.668 8s0-.666-.667-.666S1.334 8 1.334 8a6.667 6.667 0 0 0 6.667 6.666ZM8 4c.369 0 .667.298.667.667v3.057l1.138 1.138a.667.667 0 0 1-.943.943L7.724 8.666c-.25-.25-.39-.589-.39-.942V4.666C7.334 4.298 7.632 4 8 4Z"/>
    </symbol>
    <symbol id="home" viewBox="0 0 24 24">
        <path d="M13.296 2.476a2 2 0 0 0-2.592 0l-7 5.952A2 2 0 0 0 3 9.952v10.05a2 2 0 0 0 2 2h14a2 2 0 0 0 2-2V9.951a2 2 0 0 0-.704-1.524l-7-5.952ZM9 16.218a2 2 0 0 1 2-2h2.003a2 2 0 0 1 2 2L15 22h-2l.003-5.782H11V22H9v-5.782Z"/>
    </symbol>
    <symbol id="humidifier" viewBox="0 0 20 20">
        <g style="enable-background:new 0 0 20 20">
            <path d="M0 19c0 .6.4 1 1 1h18c.6 0 1-.4 1-1V1c0-.6-.4-1-1-1H1C.4 0 0 .4 0 1v18zM3.2 6.9l2.3 2.5V14c0 .2.1.3.2.4.1.1.3.1.4.1l2.3-.7c.2-.1.4-.3.4-.5V9.4l2.3-2.5c.3-.4.1-1-.4-1H3.6c-.5 0-.8.6-.4 1zM14 6.4l.4-.3s0 .1.1.1c.1.1.2.2.3.4.2.4.5.8.8 1.4.3.5.6 1.1.8 1.6.2.5.4 1.1.4 1.6 0 1.6-1.2 2.9-2.8 2.9-1.6 0-2.8-1.3-2.8-2.9 0-.5.2-1.1.4-1.6.2-.6.5-1.1.8-1.6.3-.5.6-1 .8-1.3.1-.2.2-.3.3-.4l.1-.1.4.2zm-.4-.3c.1-.1.2-.2.4-.2s.3.1.4.2l-.4.3-.4-.3z"
                  style="fill-rule:evenodd;clip-rule:evenodd"/>
        </g>
    </symbol>
    <symbol id="img-add" viewBox="0 0 16 16">
        <path d="M1.003 2.815C1.003 1.813 1.815 1 2.817 1h10.369C14.188 1 15 1.813 15 2.815V8h-1.555V2.815a.26.26 0 0 0-.26-.26H2.818a.26.26 0 0 0-.259.26v3.527l3.49 4.024a.26.26 0 0 0 .299.069l2.691-1.161v1.694l-2.076.895a1.814 1.814 0 0 1-2.089-.477l-2.315-2.67v4.47c0 .142.116.258.26.258h6.22V15h-6.22a1.815 1.815 0 0 1-1.815-1.815v-6.49a.783.783 0 0 1 0-.133V2.815Zm11.753 2.97a2.215 2.215 0 1 1-4.43 0 2.215 2.215 0 0 1 4.43 0Zm-2.215.66a.66.66 0 1 0 0-1.32.66.66 0 0 0 0 1.32Zm1.61 2.855c.429 0 .777.348.777.777v1.295h1.294a.778.778 0 0 1 0 1.556h-1.294v1.294a.778.778 0 1 1-1.555 0v-1.294h-1.295a.778.778 0 0 1 0-1.556h1.295v-1.295c0-.43.348-.777.777-.777Z"/>
    </symbol>
    <symbol id="img" viewBox="0 0 24 24">
        <path fill-rule="evenodd"
              d="M2 4a2 2 0 0 1 2-2h16a2 2 0 0 1 2 2v16a2 2 0 0 1-2 2H4a2 2 0 0 1-2-2v-9.892a1.005 1.005 0 0 1 0-.182V4Zm2 8.7V20h16v-3a.994.994 0 0 1-.449-.106l-3.583-1.8-5.856 2.524a2 2 0 0 1-2.303-.526L4 12.7Zm16 2.18-3.134-1.574a2 2 0 0 0-1.69-.05L9.32 15.782 4 9.648V4h16v10.88ZM15.675 10a1.204 1.204 0 1 0 0-2.409 1.204 1.204 0 0 0 0 2.409Zm0 2a3.204 3.204 0 1 0 0-6.409 3.204 3.204 0 0 0 0 6.409Z"/>
    </symbol>
    <symbol id="info" viewBox="0 0 20 20">
        <path d="M10 0C4.5 0 0 4.5 0 10s4.5 10 10 10 10-4.5 10-10S15.5 0 10 0zM9 14.5c0-.6.4-1 1-1s1 .4 1 1-.4 1-1 1-1-.4-1-1zm2-3c0 .6-.4 1-1 1s-1-.4-1-1v-6c0-.6.4-1 1-1s1 .4 1 1v6z"/>
    </symbol>
    <symbol id="inst" viewBox="0 0 32 32">
        <path d="M15.996 11.331A4.679 4.679 0 0 0 11.328 16a4.679 4.679 0 0 0 4.668 4.669A4.679 4.679 0 0 0 20.666 16a4.679 4.679 0 0 0-4.67-4.669ZM30 16c0-1.933.018-3.85-.091-5.779-.109-2.241-.62-4.23-2.26-5.87-1.642-1.642-3.628-2.15-5.87-2.259-1.932-.108-3.848-.091-5.778-.091-1.933 0-3.85-.017-5.779.091-2.241.109-4.23.62-5.87 2.26-1.642 1.642-2.15 3.628-2.259 5.87-.108 1.932-.091 3.848-.091 5.778 0 1.93-.017 3.85.091 5.779.109 2.241.62 4.23 2.26 5.87 1.642 1.642 3.628 2.15 5.87 2.259 1.932.108 3.848.091 5.778.091 1.933 0 3.85.018 5.779-.091 2.241-.109 4.23-.62 5.87-2.26 1.642-1.642 2.15-3.628 2.259-5.87.112-1.929.091-3.845.091-5.778Zm-14.002 7.183A7.173 7.173 0 0 1 8.813 16a7.173 7.173 0 0 1 7.183-7.183A7.173 7.173 0 0 1 23.18 16a7.173 7.173 0 0 1-7.184 7.183ZM23.474 10.2c-.928 0-1.678-.75-1.678-1.678 0-.928.75-1.677 1.678-1.677a1.676 1.676 0 0 1 1.55 2.32 1.674 1.674 0 0 1-1.55 1.035Z"/>
    </symbol>
    <symbol id="label" viewBox="0 0 16 16">
        <path fill-rule="evenodd" clip-rule="evenodd"
              d="M2.853 4.698c-.146 0-.264.127-.264.283v6.038c0 .156.118.283.264.283h8.014a.26.26 0 0 0 .215-.118l2.28-3.402a.298.298 0 0 0-.018-.353l-2.209-2.637a.257.257 0 0 0-.197-.094H2.853Zm8.12 3.68c.39 0 .705-.339.705-.755 0-.417-.316-.755-.706-.755-.39 0-.706.338-.706.755 0 .416.316.754.706.754ZM1 4.98C1 3.887 1.83 3 2.853 3h8.085c.527 0 1.029.24 1.38.66l2.21 2.636c.579.692.631 1.72.125 2.475l-2.28 3.402a1.82 1.82 0 0 1-1.506.827H2.853C1.83 13 1 12.113 1 11.019V4.98Zm1.853-.283c-.146 0-.264.127-.264.283v6.038c0 .156.118.283.264.283h8.014a.26.26 0 0 0 .215-.118l2.28-3.402a.298.298 0 0 0-.018-.353l-2.209-2.637a.257.257 0 0 0-.197-.094H2.853Z"/>
    </symbol>
    <symbol id="lamp" viewBox="0 0 28 40">
        <g style="enable-background:new 0 0 28 40">
            <path d="M9.3 38c0 1.1 1 2 2.3 2h4.7c1.3 0 2.4-.9 2.4-2v-4H9.3v4zM14 0C5.8 0 0 6.8 0 14.2c0 3.3 2.1 6.7 4.4 9.4 2.2 2.8 4.9 5.2 6.5 6.6 1.7 1.5 4.5 1.5 6.3 0 1.6-1.4 4.2-3.8 6.5-6.6 2.2-2.7 4.3-6.1 4.3-9.4C28 6.8 22.2 0 14 0zM8.1 21.3c-1-1.2-1.8-2.4-2.3-3.5.6 1.1 1.4 2.4 2.4 3.6.1.1.2.2.3.4-.1-.2-.3-.3-.4-.5zm-2.6-4c0 .1.1.2.1.2s0-.1-.1-.2zM8.7 5.8c-2.4 1.8-4 4.8-4 8.4 0-3.7 1.7-6.7 4.1-8.5 0 .1 0 .1-.1.1zm5.2.4c0-.1.1-.1.1-.1l-.1.1c-.3.3-.6.8-1 1.6.3-.8.7-1.4 1-1.6zm.1 16.9c1.2-2.7 2.3-5.9 2.3-8.6 0 2.7-1.1 6-2.3 8.6zM19.5 6c0 .1.1.2.1.3 1 2.2 1.5 5.1 1.5 8.1 0 .9-.2 1.9-.4 2.9.2-.9.3-1.9.3-2.8 0-3.1-.6-6-1.5-8.1l-.3-.6c.1.1.2.1.3.2zm1.2 11.3c-.1.5-.2.9-.3 1.3.2-.4.3-.9.3-1.3zm-.6 2.6v.2-.2z"/>
        </g>
    </symbol>
    <symbol id="light" viewBox="0 0 21 21">
        <g style="enable-background:new 0 0 21 21">
            <path d="M15.3 1c0-.6-.4-1-1-1h-8c-.6 0-1 .4-1 1s.4 1 1 1h3v4.6c-2.3.2-4.4 1-6.1 2.5-1.9 1.7-3 4-3 6.4 0 .3.1.5.3.7.2.2.4.3.7.3h18.1c.6 0 1-.4 1-1 0-2.4-1.1-4.7-3-6.4-1.7-1.5-3.8-2.3-6.1-2.5V2h3c.6 0 1.1-.4 1.1-1zM10.3 20.6c1.1 0 2.2-.5 3-1.3.4-.4.7-.8.9-1.3H6.4c.2.5.5.9.9 1.3.7.8 1.8 1.3 3 1.3z"/>
        </g>
    </symbol>
    <symbol id="like" viewBox="0 0 24 25">
        <path fill-rule="evenodd"
              d="M11.073 2.956a1.05 1.05 0 0 0-.997.716l-2.774 8.284H4.008c-1.11 0-2.008.897-2.008 2v7c0 1.105.9 2 2.009 2h13.787c.914 0 1.713-.614 1.944-1.495l2.16-8.248c.499-1.9-.942-3.757-2.915-3.757h-4.172l.327-1.41c.603-2.604-1.383-5.09-4.067-5.09Zm-1.865 9.633 2.522-7.533a2.156 2.156 0 0 1 1.452 2.54l-.588 2.541a1.078 1.078 0 0 0 1.053 1.32h5.338a1 1 0 0 1 .972 1.252l-2.16 8.247H9.03v-7.98a2 2 0 0 0 .177-.388Zm-2.186 1.367H4.009v7h3.013v-7Z"/>
    </symbol>
    <symbol id="link" viewBox="0 0 24 24">
        <path d="M20.236 3.763a6.025 6.025 0 0 0-8.477-.04L9.182 6.25a.997.997 0 1 0 1.398 1.424l2.577-2.527a4.028 4.028 0 0 1 5.668.027 4.024 4.024 0 0 1 .012 5.68L16.314 13.4a.997.997 0 1 0 1.418 1.404l2.523-2.544a6.019 6.019 0 0 0-.02-8.496ZM7.573 10.8A.998.998 0 1 0 6.162 9.39l-2.41 2.407a5.975 5.975 0 0 0 0 8.453 5.981 5.981 0 0 0 8.469-.013l2.285-2.3a.997.997 0 1 0-1.415-1.406l-2.286 2.3a3.985 3.985 0 0 1-5.642.009 3.98 3.98 0 0 1 0-5.632l2.41-2.407Zm7.382-.395a.997.997 0 1 0-1.412-1.411l-4.71 4.708a.997.997 0 1 0 1.412 1.41l4.71-4.707ZM10.58 7.674a.998.998 0 0 1-1.412-.014l1.943 2.09 1.639-1.627a2 2 0 0 1 2.823.005l.203.203a2 2 0 0 1-.005 2.832l-1.607 1.598 2.156 2.048a.997.997 0 0 1-.006-1.41l2.523-2.545a4.024 4.024 0 0 0-.012-5.68 4.028 4.028 0 0 0-5.668-.027L10.58 7.674ZM7.698 9.54a.998.998 0 0 1-.125 1.26l-2.41 2.406a3.98 3.98 0 0 0 0 5.632 3.985 3.985 0 0 0 5.642-.01l2.286-2.299a.999.999 0 0 1 1.306-.095l-2.043-1.845-1.195 1.34a2 2 0 0 1-2.836.151l-.29-.262a2 2 0 0 1-.108-2.857l1.44-1.52-1.667-1.9Zm10.007 5.288a.998.998 0 0 1-1.385-.02l-2.156-2.048-1.81 1.829 2.043 1.845a.997.997 0 0 1 .11 1.502l3.198-3.107ZM9.168 7.66a.997.997 0 0 1-.027-1.368L6.16 9.39a.998.998 0 0 1 1.537.152l1.667 1.901 1.746-1.693L9.168 7.66Z"/>
    </symbol>
    <symbol id="list" viewBox="0 0 17 16">
        <path d="M2 4a.75.75 0 1 0 0-1.5A.75.75 0 0 0 2 4Zm12.5 0a.75.75 0 0 0 0-1.5H5A.75.75 0 1 0 5 4h9.5Zm0 4.75a.75.75 0 0 0 0-1.5H5a.75.75 0 1 0 0 1.5h9.5Zm.75 4.001a.75.75 0 0 1-.75.75H5a.75.75 0 0 1 0-1.5h9.5a.75.75 0 0 1 .75.75ZM2.75 8.25a.75.75 0 1 1-1.5 0 .75.75 0 0 1 1.5 0ZM2 13.5A.75.75 0 1 0 2 12a.75.75 0 0 0 0 1.5Z"/>
    </symbol>
    <symbol id="load" viewBox="0 0 25 24">
        <path d="M11.398 3.004c2.16-.074 5.023.531 9.047 3.631l.001-1.709c0-.536.461-.971 1.028-.97.568 0 1.027.435 1.027.972l-.002 3.036c-.001 1.073-.92 1.942-2.053 1.943l-3.198.002c-.568 0-1.028-.434-1.028-.971 0-.537.459-.972 1.026-.973h1.642c-3.54-2.642-5.861-3.015-7.422-2.962-1.328.045-2.416.2-3.494.657-1.079.457-2.218 1.248-3.585 2.67a1 1 0 0 1-1.442-1.386C4.44 5.388 5.796 4.41 7.191 3.818c1.397-.592 2.761-.765 4.207-.814Zm2.204 17.992c-2.16.074-5.023-.531-9.047-3.631l-.001 1.709c0 .537-.461.971-1.028.971-.568 0-1.027-.436-1.027-.973l.002-3.036c.001-1.073.92-1.942 2.054-1.943l3.197-.002c.568 0 1.028.434 1.028.971 0 .537-.459.973-1.026.973l-1.641.001c3.539 2.641 5.86 3.014 7.42 2.961 1.329-.045 2.417-.2 3.495-.657 1.079-.457 2.218-1.248 3.585-2.67a1 1 0 1 1 1.442 1.386c-1.495 1.556-2.851 2.534-4.247 3.126-1.396.592-2.76.765-4.206.814Z"/>
    </symbol>
    <symbol id="lock" viewBox="0 0 24 24">
        <path fill-rule="evenodd" clip-rule="evenodd"
              d="M9 7c0-1.05.31-1.772.77-2.23C10.227 4.31 10.95 4 12 4s1.772.31 2.23.77c.46.458.77 1.18.77 2.23V10H9V7Zm-2 3V7c0-1.45.439-2.728 1.355-3.645C9.272 2.44 10.55 2 12 2c1.45 0 2.729.439 3.645 1.355C16.56 4.272 17 5.55 17 7V10h2a3 3 0 0 1 3 3v6a3 3 0 0 1-3 3H5a3 3 0 0 1-3-3v-6a3 3 0 0 1 3-3h2Zm1.996 2H5a1 1 0 0 0-1 1v6a1 1 0 0 0 1 1h14a1 1 0 0 0 1-1v-6a1 1 0 0 0-1-1H8.996Zm0 0H5a1 1 0 0 0-1 1v6a1 1 0 0 0 1 1h14a1 1 0 0 0 1-1v-6a1 1 0 0 0-1-1H8.996Z"/>
    </symbol>
    <symbol id="logo-ico" viewBox="0 0 80 90">
        <path d="M54.523 20.851a5.84 5.84 0 0 0 3.853-7.313 5.855 5.855 0 0 0-7.326-3.845 5.84 5.84 0 0 0-3.853 7.313 5.855 5.855 0 0 0 7.326 3.845ZM71.15 14.425a5.84 5.84 0 0 0 3.853-7.313 5.855 5.855 0 0 0-7.326-3.846 5.84 5.84 0 0 0-3.853 7.313 5.855 5.855 0 0 0 7.326 3.846Z"/>
        <path d="M70.949 20.992c-5.16-1.939-9.55 1.037-10.951 3.92-1.072 2.2-1.268 4.844-.341 7.495 5.454 15.604 3.898 32.33-9.743 35.808 7.28-28.916-2.824-51.851-23.275-51.851C6.187 16.364 1 34.177 1 46.71c0 17.852 11.594 39.184 38.992 39.184 40.485 0 43.562-40.38 36.01-59.812-.976-2.514-2.81-4.245-5.057-5.09h.004ZM35.556 68.888c-16.205-4.13-16.373-18.444-16.373-21.912 0-7.313 1.745-14.43 7.456-14.43 11.116 0 13.121 22.844 8.917 36.342Z"/>
    </symbol>
    <symbol id="mail" viewBox="0 0 24 24">
        <path d="M4 7.141V18h16V7.141l-6.785 5.189a2 2 0 0 1-2.43 0L4 7.14ZM18.2 6H5.8l6.2 4.741L18.2 6Z"/>
        <path fill-rule="evenodd" clip-rule="evenodd"
              d="M2 6a2 2 0 0 1 2-2h16a2 2 0 0 1 2 2v12a2 2 0 0 1-2 2H4a2 2 0 0 1-2-2V6Zm3.8 0h12.4c.421-.284.879-.284 1.3 0 .404.272.574.66.5 1.141V18H4V7.141c-.074-.48.096-.87.5-1.141.421-.284.879-.284 1.3 0Z"/>
    </symbol>
    <symbol id="mail_ru" viewBox="0 0 512 512">
        <path d="M325.08 254.167c-2.27-44.215-35.101-70.81-74.748-70.81h-1.493c-45.751 0-71.12 35.978-71.12 76.849 0 45.752 30.69 74.656 70.947 74.656 44.869 0 74.38-32.874 76.515-71.752l-.101-8.943zM249.061 143.78c30.57 0 59.316 13.513 80.416 34.673v.08c0-10.155 6.837-17.814 16.325-17.814l2.402-.016c14.838 0 17.894 14.047 17.894 18.49l.067 157.919c-1.05 10.343 10.673 15.683 17.167 9.043 25.362-26.06 55.694-133.972-15.764-196.481-66.596-58.292-155.956-48.69-203.479-15.932-50.525 34.844-82.847 111.97-51.447 184.405 34.234 79.001 132.184 102.565 190.404 79.058 29.479-11.897 43.09 27.95 12.474 40.972-46.256 19.7-175.02 17.712-235.167-86.484-40.64-70.35-38.486-194.134 69.305-258.263 82.45-49.074 191.164-35.492 256.714 32.966 68.52 71.567 64.517 205.587-2.308 257.683-30.282 23.675-75.262.643-74.978-33.85l-.308-11.276c-21.084 20.92-49.148 33.128-79.717 33.128-60.399 0-113.545-53.13-113.545-113.54 0-60.99 53.146-114.761 113.545-114.761"/>
    </symbol>
    <symbol id="map-marker">
        <g filter="url(#a)">
            <path d="M39.292 21.697c0 8.172-14.646 24.301-14.646 24.301S10 29.87 10 21.697c0-8.172 6.58-14.839 14.646-14.839s14.646 6.667 14.646 14.839z"
                  fill="#1088F0"/>
            <path d="M24 25a4 4 0 1 0 0-8 4 4 0 0 0 0 8z" fill="#fff" stroke="#fff" stroke-miterlimit="10"/>
        </g>
    </symbol>
    <symbol id="menu" viewBox="0 0 24 24">
        <path d="M22 5a1 1 0 0 1-1 1H3a1 1 0 0 1 0-2h18a1 1 0 0 1 1 1Zm0 7a1 1 0 0 1-1 1H3a1 1 0 1 1 0-2h18a1 1 0 0 1 1 1Zm-1 8a1 1 0 1 0 0-2H3a1 1 0 1 0 0 2h18Z"/>
    </symbol>
    <symbol id="minus" viewBox="0 0 24 24">
        <path d="M2.436 12c0-.58.47-1.052 1.051-1.052h16.825a1.051 1.051 0 1 1 0 2.104H3.487c-.58 0-1.051-.471-1.051-1.052Z"/>
    </symbol>
    <symbol id="music-library" viewBox="0 0 25 25">
        <path d="M20.334 2.503h-12c-1.1 0-2 .9-2 2v12c0 1.1.9 2 2 2h12c1.1 0 2-.9 2-2v-12c0-1.1-.9-2-2-2Zm0 14h-12v-12h12v12Zm-7.5-1a2.5 2.5 0 0 0 2.5-2.5v-5.5h3v-2h-4v5.51c-.42-.32-.93-.51-1.5-.51a2.5 2.5 0 0 0 0 5Zm-8.5-9h-2v14c0 1.1.9 2 2 2h14v-2h-14v-14Z"/>
    </symbol>
    <symbol id="ok" viewBox="0 0 24 24">
        <path fill-rule="evenodd" clip-rule="evenodd"
              d="M17.544 6.927c0 2.997-2.483 5.427-5.545 5.427s-5.544-2.43-5.544-5.427c0-2.997 2.482-5.427 5.544-5.427 3.062 0 5.545 2.43 5.545 5.427Zm-3.133 0c0 1.304-1.08 2.36-2.41 2.36-1.332 0-2.411-1.056-2.411-2.36 0-1.303 1.079-2.359 2.41-2.359 1.332 0 2.411 1.056 2.411 2.36Zm-6.763 5.627c-1.115-.448-2.398.313-2.398 1.514 0 .612.35 1.174.911 1.42 1.299.57 2.468.966 3.594 1.187l-3.07 3.005a1.627 1.627 0 0 0 0 2.336 1.714 1.714 0 0 0 2.386 0l2.974-2.911 2.975 2.911a1.714 1.714 0 0 0 2.386 0 1.627 1.627 0 0 0 0-2.336l-3.123-3.056c1.082-.23 2.225-.609 3.5-1.136.591-.246.967-.831.967-1.472 0-1.203-1.26-1.985-2.382-1.552-3.317 1.28-5.731 1.29-8.72.09Z"/>
    </symbol>
    <symbol id="on" viewBox="0 0 48 48">
        <g style="enable-background:new 0 0 48 48">
            <path d="M24 20c1.1 0 2-.9 2-2V6c0-1.1-.9-2-2-2s-2 .9-2 2v12c0 1.1.9 2 2 2z"/>
            <path d="M32.9 6.1c-.3-.1-.7-.2-.9-.2h-1.5c-1.1 0-2 .9-2 2v11.4c0 1.7-1.3 3-3 3h-2.7c-1.7 0-3-1.3-3-3V7.9c0-1.1-.9-2-2-2h-1.7c-.3 0-.7 0-1 .2C8.5 9.4 4 16.1 4 24c0 11 9 20 20 20s20-9 20-20c0-7.9-4.5-14.6-11.1-17.9z"/>
        </g>
    </symbol>
    <symbol id="percent" viewBox="0 0 24 24">
        <path d="M19.707 5.707a1 1 0 0 0-1.414-1.414l-14 14a1 1 0 1 0 1.414 1.414l14-14ZM7 6a1 1 0 1 0 0 2 1 1 0 0 0 0-2ZM4 7a3 3 0 1 1 6 0 3 3 0 0 1-6 0Zm13 9a1 1 0 1 0 0 2 1 1 0 0 0 0-2Zm-3 1a3 3 0 1 1 6 0 3 3 0 0 1-6 0Z"/>
    </symbol>
    <symbol id="phone" viewBox="0 0 24 24">
        <path d="M2.01 3.868C2.05 2.775 2.964 2 3.975 2h2.946a2 2 0 0 1 1.937 1.502l.795 3.09a2 2 0 0 1-.764 2.117l-3.43 2.484c1.325 2.894 3.694 5.653 7.7 7.292l2.601-3.226a2 2 0 0 1 2.092-.671l2.683.745A2 2 0 0 1 22 17.26v2.711c0 1.118-.93 2.053-2.09 1.98-2.579-.16-4.823-.627-6.77-1.331-5.358-1.94-8.345-5.637-9.843-9.398A18.491 18.491 0 0 1 2.01 3.868ZM15.175 19.17c1.424.396 3.025.668 4.825.782V17.26l-2.683-.745-2.142 2.656ZM4.725 9.256l2.99-2.166L6.922 4H4.007c-.047 1.53.142 3.375.718 5.256Z"/>
    </symbol>
    <symbol id="pin-line" viewBox="0 0 17 16">
        <path d="M5.46 3.797c.751-.82 1.756-1.267 2.79-1.267s2.039.447 2.79 1.267c.754.821 1.187 1.948 1.187 3.135 0 .392-.127.895-.382 1.489-.252.584-.607 1.21-1.014 1.831-.814 1.245-1.795 2.419-2.444 3.153a.18.18 0 0 1-.137.065.18.18 0 0 1-.137-.065c-.65-.734-1.63-1.908-2.444-3.153-.407-.622-.762-1.247-1.014-1.831-.255-.594-.382-1.097-.382-1.489 0-1.187.433-2.314 1.187-3.135ZM8.25 1c-1.48 0-2.885.642-3.91 1.76-1.025 1.117-1.59 2.618-1.59 4.172 0 .688.212 1.41.507 2.095.298.694.703 1.399 1.14 2.066.871 1.332 1.907 2.57 2.578 3.328a1.694 1.694 0 0 0 2.55 0c.671-.759 1.707-1.996 2.579-3.329.436-.666.841-1.371 1.14-2.065.294-.684.506-1.407.506-2.095 0-1.554-.566-3.055-1.59-4.172C11.136 1.642 9.73 1 8.25 1Zm-.592 6.204c0-.328.265-.595.592-.595.327 0 .592.267.592.595a.594.594 0 0 1-.592.595.594.594 0 0 1-.592-.595ZM8.25 5.08a2.12 2.12 0 0 0-2.115 2.124A2.12 2.12 0 0 0 8.25 9.33a2.12 2.12 0 0 0 2.115-2.125A2.12 2.12 0 0 0 8.25 5.08Z"/>
    </symbol>
    <symbol id="pin" viewBox="0 0 16 16">
        <path fill-rule="evenodd" clip-rule="evenodd"
              d="M8 2.53c-1.034 0-2.039.447-2.79 1.267-.754.821-1.187 1.948-1.187 3.135 0 .392.127.895.382 1.489.252.584.607 1.21 1.014 1.831.814 1.245 1.795 2.419 2.444 3.153A.18.18 0 0 0 8 13.47a.18.18 0 0 0 .137-.065c.65-.734 1.63-1.908 2.444-3.153.407-.622.763-1.247 1.014-1.831.255-.594.382-1.097.382-1.489 0-1.187-.433-2.314-1.187-3.135C10.04 2.977 9.034 2.53 8 2.53Zm0 2.55a2.12 2.12 0 0 0-2.115 2.124A2.12 2.12 0 0 0 8 9.33a2.12 2.12 0 0 0 2.115-2.125A2.12 2.12 0 0 0 8 5.08Zm0-2.55c-1.034 0-2.039.447-2.79 1.267-.754.821-1.187 1.948-1.187 3.135 0 .392.127.895.382 1.489.252.584.607 1.21 1.014 1.831.814 1.245 1.795 2.419 2.444 3.153A.18.18 0 0 0 8 13.47a.18.18 0 0 0 .137-.065c.65-.734 1.63-1.908 2.444-3.153.407-.622.763-1.247 1.014-1.831.255-.594.382-1.097.382-1.489 0-1.187-.433-2.314-1.187-3.135C10.04 2.977 9.034 2.53 8 2.53Zm-3.91.23C5.114 1.642 6.52 1 8 1s2.885.642 3.91 1.76c1.024 1.117 1.59 2.618 1.59 4.172 0 .688-.212 1.41-.507 2.095-.298.694-.703 1.399-1.14 2.066-.871 1.332-1.907 2.57-2.578 3.328a1.694 1.694 0 0 1-2.55 0c-.671-.759-1.707-1.996-2.579-3.329-.436-.666-.841-1.371-1.14-2.065C2.713 8.343 2.5 7.62 2.5 6.932c0-1.554.565-3.055 1.59-4.172Z"/>
    </symbol>
    <symbol id="plus-circle" viewBox="0 0 16 16">
        <path d="M8 2.556a5.444 5.444 0 1 0 0 10.888A5.444 5.444 0 0 0 8 2.556Zm0 8.987a.778.778 0 0 1-.778-.778V8.778H5.235a.778.778 0 0 1 0-1.556h1.987V5.235a.778.778 0 0 1 1.556 0v1.987h1.987a.778.778 0 0 1 0 1.556H8.778v1.987c0 .43-.348.778-.778.778Zm0-8.987a5.444 5.444 0 1 0 0 10.888A5.444 5.444 0 0 0 8 2.556ZM1 8a7 7 0 1 1 14 0A7 7 0 0 1 1 8Z"/>
    </symbol>
    <symbol id="plus" viewBox="0 0 25 24">
        <path d="M4 10.9c-.6 0-1.1.5-1.1 1.1s.5 1.1 1.1 1.1h7.4v7.4c0 .6.5 1.1 1.1 1.1.6 0 1.1-.5 1.1-1.1v-7.4H21c.6 0 1.1-.5 1.1-1.1s-.5-1.1-1.1-1.1h-7.4V3.6c0-.6-.5-1.1-1.1-1.1-.6 0-1.1.5-1.1 1.1V11H4z"/>
    </symbol>
    <symbol id="prize" viewBox="0 0 25 25">
        <path d="M19.5 5.503h-2v-2h-10v2h-2c-1.1 0-2 .9-2 2v1c0 2.55 1.92 4.63 4.39 4.94a5.01 5.01 0 0 0 3.61 2.96v3.1h-4v2h10v-2h-4v-3.1a5.01 5.01 0 0 0 3.61-2.96c2.47-.31 4.39-2.39 4.39-4.94v-1c0-1.1-.9-2-2-2Zm-14 3v-1h2v3.82c-1.16-.42-2-1.52-2-2.82Zm7 6c-1.65 0-3-1.35-3-3v-6h6v6c0 1.65-1.35 3-3 3Zm7-6c0 1.3-.84 2.4-2 2.82v-3.82h2v1Z"/>
    </symbol>
    <symbol id="question-solid" viewBox="0 0 16 16">
        <path d="M8 2.556a5.444 5.444 0 1 0 0 10.888A5.444 5.444 0 0 0 8 2.556ZM1 8a7 7 0 1 1 14 0A7 7 0 0 1 1 8Zm5.621-1.765.001-.003v.002ZM8 2.555a5.444 5.444 0 1 0 0 10.89 5.444 5.444 0 0 0 0-10.89ZM5.833 4.65C6.26 4.177 6.977 3.64 8 3.64c1.017 0 1.814.52 2.275 1.276.449.736.57 1.673.35 2.57-.194.797-.841 1.428-1.293 1.801a7.335 7.335 0 0 1-.925.646l-.018.011-.006.003-.002.001-.001.001a.778.778 0 0 1-.76-1.357l.009-.005a2.997 2.997 0 0 0 .201-.125 5.78 5.78 0 0 0 .512-.375c.417-.344.706-.698.772-.97.132-.54.044-1.046-.167-1.391-.2-.327-.512-.53-.947-.53-.43 0-.76.217-1.015.498a2.372 2.372 0 0 0-.363.538v.003a.778.778 0 0 1-1.43-.613v-.003l.002-.003.003-.008.01-.022.033-.07a3.926 3.926 0 0 1 .593-.867Zm2.858 7.153a.691.691 0 1 1-1.382 0 .691.691 0 0 1 1.382 0Z"/>
    </symbol>
    <symbol id="question" viewBox="0 0 16 16">
        <path d="M2.556 8a5.444 5.444 0 1 1 10.888 0A5.444 5.444 0 0 1 2.556 8ZM8 1a7 7 0 1 0 0 14A7 7 0 0 0 8 1ZM5.833 4.65C6.26 4.177 6.977 3.64 8 3.64c1.017 0 1.814.52 2.275 1.276.449.736.57 1.673.35 2.57-.194.797-.841 1.428-1.293 1.801a7.335 7.335 0 0 1-.925.646l-.018.011-.006.003-.002.001H8.38v.001L8 9.27l.38.68a.778.778 0 0 1-.76-1.358l.009-.005a2.997 2.997 0 0 0 .201-.125 5.78 5.78 0 0 0 .512-.375c.417-.344.706-.698.772-.97.132-.54.044-1.046-.167-1.391-.2-.327-.512-.53-.947-.53-.43 0-.76.217-1.015.498a2.372 2.372 0 0 0-.363.538l-.79-1.582Zm.788 1.584a.778.778 0 0 1-1.43-.612l.716.304a91.16 91.16 0 0 1-.715-.305v-.002l.002-.003.003-.008.01-.022.033-.07a3.926 3.926 0 0 1 .593-.867l.788 1.585Zm0 0 .001-.002v.002Zm0 .001Zm2.07 5.568a.691.691 0 1 1-1.382 0 .691.691 0 0 1 1.382 0Z"/>
    </symbol>
    <symbol id="resize" viewBox="0 0 20 20">
        <path class="st0"
              d="M2.1 3.6c0-.9.7-1.6 1.6-1.6h3.2c.4 0 .8.4.8.8s-.4.8-.8.8H3.6v3.2c0 .4-.4.8-.8.8S2 7.2 2 6.8V3.6zm15.8 12.8c0 .9-.7 1.6-1.6 1.6h-3.2c-.4 0-.8-.4-.8-.8s.4-.8.8-.8h3.2v-3.2c0-.4.4-.8.8-.8s.8.4.8.8v3.2zM16.4 2.1c.9 0 1.6.7 1.6 1.6v3.2c0 .4-.4.8-.8.8s-.8-.4-.8-.8V3.6h-3.2c-.4 0-.8-.4-.8-.8s.4-.8.8-.8h3.2zM2.1 16.4c0 .9.7 1.6 1.6 1.6h3.2c.4 0 .8-.4.8-.8s-.4-.8-.8-.8H3.6v-3.2c0-.4-.4-.8-.8-.8s-.8.4-.8.8v3.2zm.8-7.2c-.4 0-.8.4-.8.8s.4.8.8.8h14.3c.4 0 .8-.4.8-.8s-.4-.8-.8-.8H2.9z"/>
    </symbol>
    <symbol id="row" viewBox="0 0 24 24">
        <path d="M11.093 1.5H4.222A2.722 2.722 0 0 0 1.5 4.222V11.093h9.593V1.5ZM8.76 3.833V8.76H3.833V4.222c0-.215.174-.389.389-.389H8.76Zm2.333 9.074H1.5V19.778A2.722 2.722 0 0 0 4.222 22.5h6.871v-9.593ZM8.76 15.241v4.926H4.222a.389.389 0 0 1-.39-.39v-4.536H8.76ZM12.906 1.5h6.872A2.722 2.722 0 0 1 22.5 4.222V11.093h-9.594V1.5Zm2.333 2.333V8.76h4.928V4.222a.389.389 0 0 0-.389-.389H15.24Zm-2.333 9.074H22.5V19.778a2.722 2.722 0 0 1-2.722 2.722h-6.872v-9.593Zm2.333 2.334v4.926h4.54a.389.389 0 0 0 .388-.39v-4.536H15.24ZM8.76 20.167V15.24H3.833v4.537c0 .215.174.389.389.389H8.76Zm6.479 0V15.24h4.928v4.537a.389.389 0 0 1-.389.389H15.24Zm0-11.408V3.833h4.54c.214 0 .388.174.388.39v4.536H15.24Zm-6.479 0V3.833H4.222a.389.389 0 0 0-.39.39v4.536H8.76Z"/>
    </symbol>
    <symbol id="rub" viewBox="0 0 16 16">
        <path d="M1 8a7 7 0 1 1 14 0A7 7 0 0 1 1 8Zm5.61 3.07c.39 0 .68-.29.68-.68v-.42h2.05c.32 0 .55-.23.55-.54 0-.31-.23-.54-.55-.54H7.29v-.63h1.18c1.28 0 2.13-.77 2.13-1.93S9.75 4.4 8.47 4.4H6.62c-.39 0-.68.29-.68.68v2.04h-.31a.55.55 0 0 0-.56.57c0 .33.24.57.56.57h.31v.63h-.31c-.31 0-.55.23-.55.54 0 .31.24.54.55.54h.31v.42c0 .39.29.68.67.68Zm.68-3.95V5.54h1.09c.53 0 .87.32.87.8 0 .48-.34.78-.87.78H7.29Z"/>
    </symbol>
    <symbol id="rutube" viewBox="0 0 18 16">
        <path d="M.072 3.182h.405c3.578 0 7.155-.006 10.733.007a6.977 6.977 0 0 1 1.537.156c1.154.267 1.916.994 2.141 2.19a10.893 10.893 0 0 1-.005 3.94c-.217 1.217-.978 1.905-2.146 2.166l-.32.072 2.976 4.089c-.148.012-.245.026-.342.026-.956 0-1.912-.005-2.868.006a.458.458 0 0 1-.44-.235 347.508 347.508 0 0 0-2.416-3.625c-.08-.119-.257-.24-.39-.241-1.845-.016-3.689-.01-5.535-.01-.044 0-.089.011-.17.02v4.05H.072V3.181ZM3.221 8.91c.115.005.193.013.27.013h7.32c.16 0 .317-.013.473-.039.39-.068.55-.225.583-.631.029-.351.022-.705.023-1.058 0-.998-.189-1.19-1.182-1.197H3.22V8.91Zm12.648-5.477c.891 0 1.613-.732 1.613-1.634 0-.903-.722-1.634-1.612-1.634-.891 0-1.613.731-1.613 1.634 0 .902.722 1.634 1.613 1.634Z"/>
    </symbol>
    <symbol id="s" viewBox="0 0 12 12">
        <path d="M2.834 10.794a.893.893 0 0 1-.359-.68.95.95 0 0 1 .88-1.006c.218-.013.423.042.668.213.51.388 1.13.669 1.85.626.569-.033 1.04-.279 1.013-.746-.023-.383-.383-.512-.897-.699l-.909-.314c-1.438-.484-2.33-1.084-2.407-2.383C2.58 4.22 3.814 3.245 5.571 3.14c.987-.059 1.959.202 2.661.73a.934.934 0 0 1-.418 1.73c-.2.012-.407-.076-.616-.198-.452-.275-.983-.444-1.535-.41-.535.03-.875.235-.851.635.02.335.297.484.913.682l.822.287c1.524.512 2.398 1.096 2.474 2.38.1 1.7-1.266 2.717-3.072 2.824-1.238.07-2.336-.334-3.115-1.007Zm-.167-9.596C2.667.531 3.207 0 3.85 0c.657 0 1.183.516 1.183 1.198 0 .638-.54 1.168-1.183 1.168-.628 0-1.183-.561-1.183-1.168Zm4.14 0a1.237 1.237 0 0 1 .348-.85A1.135 1.135 0 0 1 7.984 0c.676-.001 1.19.515 1.19 1.197 0 .638-.529 1.168-1.19 1.168-.618 0-1.176-.561-1.176-1.168Z"/>
    </symbol>
    <symbol id="save-solid" viewBox="0 0 24 24">
        <path fill-rule="evenodd" clip-rule="evenodd"
              d="M5 4h10.52L19 8.35V20h-3v-5a2 2 0 0 0-2-2h-4a2 2 0 0 0-2 2v5H5V4Zm9 11v5h-4v-5h4ZM5 2h10.52a2 2 0 0 1 1.561.75l3.48 4.351A2 2 0 0 1 21 8.351V20a2 2 0 0 1-2 2H5a2 2 0 0 1-2-2V4a2 2 0 0 1 2-2Zm0 2h10.52L19 8.35V20H5V4Z"/>
    </symbol>
    <symbol id="save" viewBox="0 0 24 24">
        <path d="M15.52 4H5v16h3v-5a2 2 0 0 1 2-2h4a2 2 0 0 1 2 2v5h3V8.35L15.52 4ZM14 20v-5h-4v5h4ZM5 2h10.52a2 2 0 0 1 1.561.75l3.48 4.351A2 2 0 0 1 21 8.351V20a2 2 0 0 1-2 2H5a2 2 0 0 1-2-2V4a2 2 0 0 1 2-2Z"/>
    </symbol>
    <symbol id="sber">
        <g fill="none">
            <path d="M21.37 4.663a12.073 12.073 0 0 1 1.42 2.386l-10.787 8.058-4.508-2.864V8.798l4.508 2.864 9.367-7ZM2.894 12c0-.155.004-.308.012-.46l-2.732-.136a12.107 12.107 0 0 0 .885 5.19 11.979 11.979 0 0 0 2.568 3.89l1.938-1.963a9.205 9.205 0 0 1-1.977-2.99A9.303 9.303 0 0 1 2.894 12ZM12 2.772c.153 0 .304.005.455.013l.137-2.77a11.673 11.673 0 0 0-5.124.896 11.8 11.8 0 0 0-3.84 2.604L5.564 5.48a9.067 9.067 0 0 1 2.951-2.005A8.969 8.969 0 0 1 12 2.772ZM12 21.229c-.152 0-.304 0-.455-.013l-.137 2.769a11.665 11.665 0 0 0 5.123-.896 11.792 11.792 0 0 0 3.838-2.604l-1.934-1.963a9.073 9.073 0 0 1-2.951 2.004 8.97 8.97 0 0 1-3.484.703Z"
                  fill="#21A037"/>
            <path d="m17.133 4.382 2.303-1.72A11.69 11.69 0 0 0 11.995 0v2.771a8.976 8.976 0 0 1 5.137 1.611ZM23.841 12c.002-.721-.06-1.44-.186-2.15l-2.549 1.903V12c.001 1.29-.266 2.565-.782 3.743a9.2 9.2 0 0 1-2.217 3.097l1.838 2.059a11.966 11.966 0 0 0 2.881-4.03A12.105 12.105 0 0 0 23.841 12ZM12 21.229c-1.272 0-2.53-.27-3.693-.794a9.093 9.093 0 0 1-3.056-2.247L3.22 20.051a11.817 11.817 0 0 0 3.976 2.92c1.513.68 3.15 1.03 4.805 1.029v-2.771ZM5.894 5.16 4.057 3.101a11.963 11.963 0 0 0-2.882 4.03A12.105 12.105 0 0 0 .159 12h2.735c0-1.29.267-2.565.783-3.743A9.201 9.201 0 0 1 5.894 5.16Z"
                  fill="#21A037"/>
        </g>
    </symbol>
    <symbol id="search" viewBox="0 0 25 25">
        <path fill-rule="evenodd"
              d="M18.2 11.6a7 7 0 1 1-14 0 7 7 0 0 1 14 0Zm-1.382 7.032a9 9 0 1 1 1.414-1.414l3.675 3.675a1 1 0 0 1-1.414 1.414l-3.675-3.675Z"/>
    </symbol>
    <symbol id="send" viewBox="0 0 23 18">
        <path d="m0 18 21-9L0 0v7l15 2-15 2v7Z"/>
    </symbol>
    <symbol id="settings" viewBox="0 0 24 24">
        <path fill-rule="evenodd" clip-rule="evenodd"
              d="M12.876 4H11.02v.954a2 2 0 0 1-1.106 1.788l-.088.045a2 2 0 0 1-2.308-.375L6.805 5.7 5.647 6.857l.712.712a2 2 0 0 1 .375 2.309l-.044.088a2 2 0 0 1-1.79 1.106h-.953v1.857h.954a2 2 0 0 1 1.789 1.106l.044.088a2 2 0 0 1-.375 2.309l-.712.712L6.805 18.3l.712-.712a2 2 0 0 1 2.308-.375l.088.045a2 2 0 0 1 1.106 1.788v.954h1.857v-.954a2 2 0 0 1 1.106-1.788l.088-.045a2 2 0 0 1 2.309.375l.712.712 1.157-1.157-.712-.712a2 2 0 0 1-.374-2.309l.044-.088a2 2 0 0 1 1.789-1.106h.953v-1.857h-.953a2 2 0 0 1-1.79-1.106l-.043-.088a2 2 0 0 1 .374-2.309l.712-.712L17.091 5.7l-.712.712a2 2 0 0 1-2.309.375l-.088-.045a2 2 0 0 1-1.106-1.788V4Zm-.929 4.429a3.571 3.571 0 1 0 0 7.142 3.571 3.571 0 0 0 0-7.142ZM9.02 4a2 2 0 0 1 2-2h1.857a2 2 0 0 1 2 2v.954l.089.044.712-.712a2 2 0 0 1 2.828 0l1.157 1.157a2 2 0 0 1 0 2.829l-.711.711.044.089h.953a2 2 0 0 1 2 2v1.857a2 2 0 0 1-2 2h-.953l-.044.088.711.712a2 2 0 0 1 0 2.829l-1.157 1.157a2 2 0 0 1-2.828 0l-.712-.712-.089.044v.954a2 2 0 0 1-2 2H11.02a2 2 0 0 1-2-2v-.954l-.088-.044-.712.712a2 2 0 0 1-2.829 0l-1.157-1.157a2 2 0 0 1 0-2.829l.712-.711-.044-.089h-.954a2 2 0 0 1-2-2v-1.857a2 2 0 0 1 2-2h.954l.044-.089-.712-.711a2 2 0 0 1 0-2.829L5.39 4.286a2 2 0 0 1 2.829 0l.712.712.088-.044V4Zm3.857 0H11.02v.954a2 2 0 0 1-1.106 1.788l-.088.045a2 2 0 0 1-2.308-.375L6.805 5.7 5.647 6.857l.712.712a2 2 0 0 1 .375 2.309l-.044.088a2 2 0 0 1-1.79 1.106h-.953v1.857h.954a2 2 0 0 1 1.789 1.106l.044.088a2 2 0 0 1-.375 2.309l-.712.712L6.805 18.3l.712-.712a2 2 0 0 1 2.308-.375l.088.045a2 2 0 0 1 1.106 1.788v.954h1.857v-.954a2 2 0 0 1 1.106-1.788l.088-.045a2 2 0 0 1 2.309.375l.712.712 1.157-1.157-.712-.712a2 2 0 0 1-.374-2.309l.044-.088a2 2 0 0 1 1.789-1.106h.953v-1.857h-.953a2 2 0 0 1-1.79-1.106l-.043-.088a2 2 0 0 1 .374-2.309l.712-.712L17.091 5.7l-.712.712a2 2 0 0 1-2.309.375l-.088-.045a2 2 0 0 1-1.106-1.788V4Z"/>
    </symbol>
    <symbol id="share" viewBox="0 0 16 17">
        <path fill-rule="evenodd"
              d="M12.235 4.084a.605.605 0 1 1 1.21 0 .605.605 0 0 1-1.21 0Zm.604-2.16a2.16 2.16 0 0 0-2.159 2.232L4.706 7.414a2.16 2.16 0 1 0 0 3.018l5.974 3.26-.001.071a2.16 2.16 0 1 0 .615-1.51L5.32 8.996a2.2 2.2 0 0 0 0-.143l5.974-3.259a2.16 2.16 0 1 0 1.546-3.67Zm-.604 11.84a.605.605 0 1 1 1.21-.001.605.605 0 0 1-1.21 0ZM3.16 8.318a.605.605 0 1 0 0 1.21.605.605 0 0 0 0-1.21Z"/>
    </symbol>
    <symbol id="socket" viewBox="0 0 20 20">
        <g style="enable-background:new 0 0 20 20">
            <path class="st0"
                  d="M10.1 4.5C7 4.5 4.6 7 4.6 10s2.5 5.5 5.5 5.5c3.1 0 5.5-2.5 5.5-5.5 0-3.1-2.5-5.5-5.5-5.5zM9.2 10c0 .6-.5 1.1-1.1 1.1-.6 0-1.1-.5-1.1-1.1s.5-1.1 1.1-1.1c.6 0 1.2.5 1.1 1.1zm2.9 1.1c-.6 0-1.1-.5-1.1-1.1s.5-1.1 1.1-1.1c.6 0 1.1.5 1.1 1.1s-.5 1.1-1.1 1.1z"/>
            <path class="st0"
                  d="M19 0H1C.4 0 0 .4 0 1v18c0 .6.4 1 1 1h18c.6 0 1-.4 1-1V1c0-.6-.4-1-1-1zm-8.9 17c-3.9 0-7-3.2-7-7 0-3.9 3.2-7 7-7 3.9 0 7 3.2 7 7 0 3.9-3.2 7-7 7z"/>
        </g>
    </symbol>
    <symbol id="star-line" viewBox="0 0 16 16">
        <path d="M6.41 3.197a1.653 1.653 0 0 1 3.18 0l.592 1.89a.24.24 0 0 0 .227.17h1.917c1.618 0 2.291 2.147.982 3.133L11.757 9.56a.252.252 0 0 0-.087.276l.593 1.89c.5 1.596-1.262 2.923-2.572 1.936l-1.55-1.168a.232.232 0 0 0-.281 0l-1.551 1.168c-1.31.987-3.072-.34-2.572-1.936l.593-1.89a.253.253 0 0 0-.087-.276L2.692 8.39c-1.31-.986-.637-3.132.982-3.132h1.917a.24.24 0 0 0 .227-.171l.593-1.89Zm1.817.458a.236.236 0 0 0-.454 0l-.592 1.89c-.224.714-.866 1.197-1.59 1.197H3.674c-.231 0-.327.307-.14.448l1.55 1.168c.587.44.832 1.222.608 1.936l-.593 1.89c-.071.228.18.417.368.277l1.55-1.169a1.624 1.624 0 0 1 1.965 0l1.551 1.168c.187.141.439-.048.368-.276l-.593-1.89a1.768 1.768 0 0 1 .607-1.936l1.551-1.168c.187-.141.091-.448-.14-.448h-1.917c-.724 0-1.366-.483-1.59-1.197l-.592-1.89Z"/>
    </symbol>
    <symbol id="star" viewBox="0 0 20 20">
        <path d="M8.231 1.356c.573-1.808 2.965-1.808 3.538 0l1.521 4.805h4.84c1.826 0 2.566 2.516 1.067 3.633l-3.848 2.87 1.485 4.69c.578 1.826-1.359 3.38-2.837 2.278L10 16.652l-3.997 2.98c-1.478 1.102-3.415-.452-2.837-2.277l1.485-4.691-3.848-2.87c-1.5-1.117-.76-3.633 1.068-3.633H6.71l1.521-4.805Zm3.29 5.445L10 1.996 8.479 6.801c-.257.81-.968 1.356-1.769 1.356H1.87l3.85 2.87c.68.507.966 1.436.7 2.277l-1.485 4.69 3.997-2.98a1.77 1.77 0 0 1 2.136 0l3.997 2.98-1.485-4.69c-.266-.841.02-1.77.7-2.278l3.85-2.869h-4.84c-.8 0-1.512-.546-1.769-1.356ZM10 1.996l1.521 4.805c.257.81.968 1.356 1.769 1.356h4.84l-3.85 2.87c-.68.507-.966 1.436-.7 2.277l1.485 4.69-3.997-2.98a1.77 1.77 0 0 0-2.136 0l-3.997 2.98 1.485-4.69c.266-.841-.02-1.77-.7-2.278L1.87 8.157h4.84c.8 0 1.512-.546 1.769-1.356L10 1.996Z"/>
    </symbol>
    <symbol id="support" viewBox="0 0 64 64">
        <path d="M28.927 4c-7.464 0-13.78 4.918-15.884 11.69-.548.264-1.113.597-1.647.948-1.109.728-2.32 1.687-3.262 2.645A14.444 14.444 0 0 0 4 29.413c0 3.79 1.481 7.435 4.134 10.13.486.494 1.623 1.372 2.718 2.085.58.378 1.252.779 1.928 1.096.569.268 1.554.683 2.627.683h3.111V20.631c0-5.749 4.66-10.409 10.41-10.409H32c7.446 0 13.481 6.036 13.481 13.482v14.134c0 5.749-4.66 10.409-10.408 10.409h-.539a8.642 8.642 0 1 0 0 6.222h.539c7.437 0 13.733-4.881 15.86-11.614.105-.046.2-.09.287-.13a16.548 16.548 0 0 0 1.928-1.097c1.095-.713 2.232-1.59 2.718-2.085A14.444 14.444 0 0 0 60 29.413c0-3.79-1.481-7.435-4.134-10.13-.942-.958-2.154-1.917-3.262-2.645a14.368 14.368 0 0 0-1.72-.983 6.939 6.939 0 0 0-1.086-.416C46.632 8.593 39.852 4 32 4h-3.073Zm22.777 19.938v10.95a8.231 8.231 0 0 0 2.074-5.475 8.232 8.232 0 0 0-2.074-5.475Zm-41.482 5.475c0-2.037.747-3.986 2.074-5.475v10.95a8.231 8.231 0 0 1-2.074-5.475ZM24.05 51.358a2.42 2.42 0 1 1 4.84 0 2.42 2.42 0 0 1-4.84 0Z"/>
    </symbol>
    <symbol id="team" viewBox="0 0 24 24">
        <path d="M14.953 8a6 6 0 1 1-12 0 6 6 0 0 1 12 0Zm-6 4a4 4 0 1 0 0-8 4 4 0 0 0 0 8Zm-3.975 5.688c-.919.428-.978.801-.978.812V20.999A1 1 0 0 1 2 21V18.5c0-1.24 1.04-2.116 2.134-2.625C5.308 15.328 6.927 15 8.86 15c1.933 0 3.55.328 4.725.875 1.095.51 2.134 1.386 2.134 2.625V21a1 1 0 0 1-2 0v-2.5c0-.01-.059-.384-.978-.812-.84-.391-2.151-.688-3.881-.688s-3.042.297-3.882.688ZM15.722 4.382a1 1 0 0 1 1-1 5 5 0 1 1 0 10 1 1 0 1 1 0-2 3 3 0 1 0 0-6 1 1 0 0 1-1-1Zm.592 11.7c0-.553.134-1.082.686-1.082 1.687 0 2.943.472 3.79 1.225.837.744 1.21 1.71 1.21 2.553V20.999A1 1 0 0 1 20 21V18.777c0-.268-.127-.691-.54-1.057-.402-.358-1.147-.72-2.46-.72-.552 0-.546-.329-.686-.918ZM12.954 8a4 4 0 1 1-8 0 4 4 0 0 1 8 0Zm-7.976 9.688c-.919.428-.978.801-.978.812V20.999A1 1 0 0 1 3 22h11.72a1 1 0 0 1-1-1v-2.5c0-.01-.06-.384-.979-.812-.84-.391-2.151-.688-3.881-.688s-3.042.297-3.882.688Zm10.744-5.306a1 1 0 0 1 1-1 3 3 0 1 0 0-6 1 1 0 0 1-1-1s.651 2.418.651 4c0 1.583-.651 4-.651 4ZM21 22a1 1 0 0 1-1-1V18.777c0-.268-.127-.691-.54-1.057-.402-.358-1.147-.72-2.46-.72-.552 0-.546-.329-.686-.918.022.332.318 1.6.438 2.735 0 1.501-.057 3.183-.057 3.183H21Z"/>
    </symbol>
    <symbol id="tg" viewBox="0 0 24 24">
        <path d="M19.178 20.25 22.5 3.639c0-1.106-1.533-.438-1.533-.438l-18.65 7.258s-.883.3-.813.853c.07.553.79.806.79.806l4.69 1.566 11.264-7.096s.65-.392.627 0c0 0 .116.07-.233.392-.348.323-8.848 7.903-8.848 7.903l-.017.142 7.66 5.826c1.277.553 1.741-.6 1.741-.6Zm-6.468-2.995L9.68 19.997s-.237.179-.496.067l.58-5.093"/>
    </symbol>
    <symbol id="tiktok" viewBox="0 0 24 24">
        <path d="M16.34 9.08A7.82 7.82 0 0 0 21 10.62V7.17c-.329 0-.657-.036-.979-.107V9.78a7.82 7.82 0 0 1-4.66-1.538v7.041c0 3.523-2.767 6.378-6.18 6.378a6.017 6.017 0 0 1-3.44-1.079 6.07 6.07 0 0 0 4.418 1.92c3.414 0 6.181-2.856 6.181-6.379V9.081Zm1.207-3.48a4.882 4.882 0 0 1-1.207-2.816V2.34h-.927a4.838 4.838 0 0 0 2.134 3.26ZM7.9 17.878a2.966 2.966 0 0 1-.577-1.766c0-1.611 1.266-2.917 2.828-2.917.29 0 .58.046.857.136V9.805a6.043 6.043 0 0 0-.978-.058v2.745a2.75 2.75 0 0 0-.858-.136c-1.562 0-2.827 1.306-2.827 2.917 0 1.14.632 2.126 1.555 2.606Zm7.462-9.637a7.82 7.82 0 0 0 4.66 1.538V7.063A4.646 4.646 0 0 1 17.547 5.6a4.838 4.838 0 0 1-2.134-3.26h-2.436v13.782c-.006 1.607-1.27 2.908-2.828 2.908a2.794 2.794 0 0 1-2.25-1.152 2.928 2.928 0 0 1-1.555-2.606c0-1.61 1.265-2.917 2.827-2.917.299 0 .587.048.858.136V9.747c-3.354.071-6.05 2.899-6.05 6.376 0 1.736.671 3.31 1.761 4.46a6.018 6.018 0 0 0 3.44 1.078c3.414 0 6.181-2.855 6.181-6.378V8.241Zm4.66-1.178v-.734a4.553 4.553 0 0 1-2.474-.73 4.641 4.641 0 0 0 2.474 1.464ZM15.413 2.34a5.116 5.116 0 0 1-.052-.396V1.5h-3.363v13.782c-.005 1.606-1.269 2.907-2.827 2.907-.442 0-.878-.106-1.272-.31a2.794 2.794 0 0 0 2.25 1.15c1.559 0 2.822-1.3 2.828-2.907V2.34h2.436Zm-5.384 7.405v-.781a6.051 6.051 0 0 0-.848-.06C5.767 8.904 3 11.76 3 15.282c0 2.208 1.088 4.154 2.74 5.299a6.462 6.462 0 0 1-1.761-4.46c0-3.477 2.696-6.304 6.05-6.376Z"/>
    </symbol>
    <symbol id="time" viewBox="0 0 22 24">
        <g fill="none">
            <ellipse cx="11" cy="12.001" rx="9.167" ry="9.404" fill="#fff"/>
            <path d="M11 23.286C4.925 23.286 0 18.233 0 12S4.925.715 11 .715 22 5.767 22 12c-.007 6.23-4.928 11.279-11 11.286Zm0-20.314c-4.86 0-8.8 4.042-8.8 9.028 0 4.986 3.94 9.029 8.8 9.029 4.86 0 8.8-4.043 8.8-9.029-.006-4.984-3.942-9.022-8.8-9.028Zm5.5 10.157H9.9V6.358h2.2v4.514h4.4v2.257Z"
                  fill="#061283"/>
        </g>
    </symbol>
    <symbol id="time2" viewBox="0 0 24 24">
        <path fill-rule="evenodd" clip-rule="evenodd"
              d="M12 20a8 8 0 1 0 0-16 8 8 0 0 0 0 16Zm1-13a1 1 0 1 0-2 0v4.586A2 2 0 0 0 11.586 13l1.707 1.707a1 1 0 0 0 1.414-1.414L13 11.586V7Zm9 5c0 5.523-4.477 10-10 10S2 17.523 2 12 6.477 2 12 2s10 4.477 10 10Zm-10 8a8 8 0 1 0 0-16 8 8 0 0 0 0 16Z"/>
    </symbol>
    <symbol id="trash" viewBox="0 0 16 16">
        <path fill-rule="evenodd" clip-rule="evenodd"
              d="M6.11 3.773c0-.14.11-.254.246-.254h3.288a.25.25 0 0 1 .246.254v.675a.25.25 0 0 1-.246.253H6.356a.25.25 0 0 1-.246-.253v-.675ZM4.648 4.7a1.835 1.835 0 0 1-.018-.253v-.675C4.63 2.793 5.403 2 6.356 2h3.288c.953 0 1.726.794 1.726 1.773v.675c0 .086-.006.17-.018.253h1.908c.409 0 .74.34.74.76a.75.75 0 0 1-.74.76h-.575v7.006c0 .98-.773 1.773-1.726 1.773H5.133c-.946 0-1.715-.78-1.726-1.751L3.324 6.22H2.74A.75.75 0 0 1 2 5.46c0-.42.331-.76.74-.76h1.908Zm1.708 1.52H4.804l.082 7.01a.25.25 0 0 0 .247.25h5.826a.25.25 0 0 0 .247-.254V6.221h-4.85Zm1.069 1.266a.75.75 0 0 0-.74-.76.75.75 0 0 0-.74.76v4.052c0 .42.331.76.74.76a.75.75 0 0 0 .74-.76V7.487Zm1.89-.76c.409 0 .74.34.74.76v4.052a.75.75 0 0 1-.74.76.75.75 0 0 1-.74-.76V7.487c0-.42.332-.76.74-.76Z"/>
    </symbol>
    <symbol id="twitter" viewBox="0 0 14 11">
        <g style="enable-background:new 0 0 14 11">
            <path d="M13 1.7c-.5.2-1 .3-1.4.4.5-.3.9-.8 1.1-1.3-.5.3-1 .5-1.6.6C10.6.9 10 .6 9.3.6 7.9.6 6.8 1.7 6.8 3c0 .2 0 .4.1.5-2.1-.1-4-1-5.2-2.5-.2.4-.3.8-.3 1.2 0 .8.4 1.6 1.1 2-.4 0-.8-.1-1.1-.3 0 1.2.9 2.1 2 2.4-.4.1-.8.1-1.2.1.4.9 1.3 1.6 2.4 1.6-.8.6-1.9 1-3.1 1H.9c1.1.7 2.4 1.1 3.8 1.1 4.6 0 7.1-3.7 7.1-6.8V3c.4-.4.9-.8 1.2-1.3z"/>
        </g>
    </symbol>
    <symbol id="union" viewBox="0 0 25 25">
        <path d="M6.5 10.055a6 6 0 1 1 12 0 6 6 0 0 1-12 0Zm7 7.939a8.001 8.001 0 0 0-1-15.939 8 8 0 0 0-1 15.939v3.061a1 1 0 1 0 2 0v-3.061Z"/>
    </symbol>
    <symbol id="upload" viewBox="0 0 32 32">
        <path d="M5.333 21.232c0-.746.596-1.352 1.331-1.352.736 0 1.332.606 1.332 1.352v2.73h16.008v-2.73c0-.746.596-1.352 1.331-1.352.736 0 1.332.606 1.332 1.352v2.73c0 1.494-1.192 2.705-2.663 2.705H7.996c-1.47 0-2.663-1.21-2.663-2.704v-2.73Zm6.234-7.034 3.052 3.1V6.685c0-.746.596-1.352 1.331-1.352.736 0 1.331.606 1.331 1.352v10.613l3.053-3.1a1.317 1.317 0 0 1 1.882 0c.52.528.52 1.384 0 1.912l-4.383 4.452a2.633 2.633 0 0 1-3.765 0L9.685 16.11a1.367 1.367 0 0 1 0-1.912 1.317 1.317 0 0 1 1.882 0Z"/>
    </symbol>
    <symbol id="user-auth" viewBox="0 0 24 24">
        <path d="M12.142 14.405c3.961 0 7.018-3.082 7.018-6.703C19.16 4.082 16.103 1 12.142 1c-3.96 0-7.017 3.082-7.017 6.702s3.056 6.703 7.017 6.703Zm4.491-6.703c0 2.4-2.01 4.345-4.49 4.345-2.481 0-4.492-1.945-4.492-4.345 0-2.4 2.01-4.345 4.491-4.345 2.48 0 4.491 1.946 4.491 4.345ZM6.67 19.108c0 .004 0 .004.002-.002.014-.043.133-.39 1.062-.798.945-.416 2.433-.737 4.41-.737 1.975 0 3.464.321 4.409.737.929.408 1.047.755 1.062.799.002.005.002.005.002.002V21.823c0 .651.566 1.179 1.263 1.179.698 0 1.263-.528 1.263-1.179v-2.716c0-1.394-1.238-2.372-2.513-2.933-1.371-.603-3.251-.96-5.487-.96-2.235 0-4.115.357-5.486.96-1.275.561-2.514 1.539-2.514 2.933V21.824c0 .65.566 1.179 1.263 1.179.698 0 1.264-.528 1.264-1.179V19.108Zm5.473-7.06c2.48 0 4.491-1.946 4.491-4.346 0-2.4-2.01-4.345-4.49-4.345-2.481 0-4.492 1.946-4.492 4.345 0 2.4 2.01 4.345 4.491 4.345Zm-5.471 7.059c-.002.005-.002.005-.002.002V21.823c0 .651-.566 1.179-1.264 1.179H18.88c-.697 0-1.263-.528-1.263-1.179v-2.716c0 .004 0 .004-.002-.002-.015-.043-.133-.39-1.063-.798-.944-.416-2.433-.737-4.409-.737s-3.464.321-4.409.737c-.929.408-1.048.755-1.062.799Z"/>
    </symbol>
    <symbol id="user" viewBox="0 0 24 24">
        <path d="M12 14a6 6 0 1 0 0-12 6 6 0 0 0 0 12Zm4-6a4 4 0 1 1-8 0 4 4 0 0 1 8 0ZM7 18.5c0-.003 0-.02.017-.058a.714.714 0 0 1 .129-.183c.153-.166.427-.37.861-.567C8.874 17.298 10.223 17 12 17c1.777 0 3.127.298 3.993.692.434.197.708.4.86.567.075.08.112.143.13.183A.147.147 0 0 1 17 18.5V21a1 1 0 1 0 2 0v-2.5c0-1.252-1.07-2.125-2.18-2.63-1.196-.543-2.846-.87-4.82-.87-1.974 0-3.624.327-4.82.87C6.07 16.376 5 17.249 5 18.5V21a1 1 0 1 0 2 0V18.5Z"/>
    </symbol>
    <symbol id="video-solid" viewBox="0 0 16 16">
        <path d="M1.778 3A.784.784 0 0 0 1 3.79v8.42c0 .436.348.79.778.79h8.982c.43 0 .778-.354.778-.79V10.66l2.193 1.814a.768.768 0 0 0 .825.101.79.79 0 0 0 .444-.713V4.062a.79.79 0 0 0-.44-.711.768.768 0 0 0-.823.095l-2.199 1.782V3.79A.784.784 0 0 0 10.761 3H1.777Zm9.76 5.621V7.25l1.906-1.546V10.2L11.538 8.62ZM9.983 6.78v-2.2H2.556v6.842h7.427V9.086a.8.8 0 0 1-.006-.094V6.874c0-.032.002-.063.006-.095Zm0 0v-2.2H2.556v6.842h7.427V9.086a.8.8 0 0 1-.006-.094V6.874c0-.032.002-.063.006-.095Zm1.555.47v1.372l1.906 1.578V5.703L11.538 7.25Z"/>
    </symbol>
    <symbol id="video" viewBox="0 0 16 16">
        <path fill-rule="evenodd"
              d="M1.778 3A.784.784 0 0 0 1 3.79v8.42c0 .436.348.79.778.79h8.982c.43 0 .778-.354.778-.79V10.66l2.193 1.814a.768.768 0 0 0 .825.101.79.79 0 0 0 .444-.713V4.062a.79.79 0 0 0-.44-.711.768.768 0 0 0-.823.095l-2.199 1.782V3.79A.784.784 0 0 0 10.761 3H1.777Zm9.76 5.621V7.25l1.906-1.546V10.2L11.538 8.62ZM9.983 6.78v-2.2H2.556v6.842h7.427V9.086a.8.8 0 0 1-.006-.094V6.874c0-.032.002-.063.006-.095Z"/>
    </symbol>
    <symbol id="vk" viewBox="0 0 24 24">
        <path d="M23.45 5.948c.166-.546 0-.948-.795-.948H20.03c-.668 0-.976.347-1.143.73 0 0-1.335 3.196-3.226 5.271-.612.603-.89.793-1.224.793-.167 0-.418-.19-.418-.738V5.949c0-.656-.184-.948-.74-.948H9.151c-.417 0-.668.304-.668.593 0 .62.946.765 1.043 2.513v3.797c0 .833-.153.984-.487.984-.89 0-3.055-3.21-4.34-6.884C4.45 5.288 4.2 5 3.527 5H.9c-.75 0-.9.347-.9.73 0 .682.89 4.07 4.145 8.55C6.315 17.34 9.37 19 12.153 19c1.67 0 1.875-.369 1.875-1.003v-2.313c0-.737.158-.884.687-.884.39 0 1.057.191 2.615 1.666C19.11 18.216 19.403 19 20.405 19h2.625c.75 0 1.126-.369.91-1.096-.238-.724-1.088-1.776-2.215-3.022-.612-.71-1.53-1.476-1.809-1.858-.389-.491-.278-.71 0-1.147 0 0 3.2-4.426 3.533-5.93h.001Z"/>
    </symbol>
    <symbol id="voice" viewBox="0 0 28 32">
        <g style="enable-background:new 0 0 28 32">
            <path d="M21.5.8C24.2-1.2 28 .7 28 4v24c0 3.3-3.8 5.2-6.5 3.2l-8.3-6.5-9.2-.2c-2.2 0-4-1.8-4-4V11.4c0-2.2 1.8-4 4-4h9.2L21.5.8z"/>
        </g>
    </symbol>
    <symbol id="wallet-solid" viewBox="0 0 24 24">
        <path d="M20 7h-3V3H4c-1.1 0-2 .9-2 2v14c0 1.1.9 2 2 2h16c1.1 0 2-.9 2-2V9c0-1.1-.9-2-2-2zm-3 8h-1c-.6 0-1-.4-1-1s.4-1 1-1h1c.6 0 1 .4 1 1s-.4 1-1 1zM4 5h11v2H4V5z"/>
    </symbol>
    <symbol id="wallet" viewBox="0 0 24 25">
        <path fill-rule="evenodd"
              d="M17.315 3.924H4.222C2.72 3.924 1.5 5.083 1.5 6.513v12.822c0 1.43 1.219 2.589 2.722 2.589h15.556c1.503 0 2.722-1.16 2.722-2.59v-8.876c0-1.43-1.219-2.59-2.722-2.59h-2.463V3.924ZM14.98 7.869H3.834V6.513a.38.38 0 0 1 .39-.37h10.759v1.726ZM3.834 10.088v9.246c0 .205.174.37.39.37h15.555a.38.38 0 0 0 .389-.37v-8.876a.38.38 0 0 0-.39-.37H3.834Zm12.315 3.822c-.573 0-1.037.441-1.037.986 0 .545.464.986 1.037.986h1.037c.573 0 1.037-.441 1.037-.986 0-.545-.464-.986-1.037-.986h-1.037Z"/>
    </symbol>
    <symbol id="whatsapp" viewBox="0 0 24 24">
        <g style="enable-background:new 0 0 24 24">
            <path d="M19.5 4.6c-1.9-2-4.6-3.1-7.4-3.1-5.9 0-10.5 4.7-10.5 10.4 0 1.8.5 3.6 1.4 5.2l-1.5 5.4 5.6-1.4c1.5.9 3.3 1.2 5 1.2 5.8 0 10.5-4.7 10.5-10.4-.1-2.8-1.2-5.4-3.1-7.3zm-7.4 16c-1.5 0-3.1-.4-4.4-1.2l-.3-.2-3.4.9.9-3.2-.2-.3c-2.5-4-1.3-9.4 2.8-11.9s9.4-1.3 12 2.8c2.5 4.1 1.3 9.4-2.8 11.9-1.4.7-3 1.2-4.6 1.2zm5-6.3-.6-.3s-.9-.4-1.5-.7c-.1 0-.1-.1-.2-.1-.2 0-.3.1-.4.1 0 0-.1.1-.9 1-.1.1-.2.2-.3.2h-.1c-.1 0-.2-.1-.2-.1l-.3-.1c-.6-.3-1.2-.6-1.7-1.1-.1-.1-.3-.2-.4-.3-.4-.4-.8-.9-1.1-1.4l-.1-.1c-.1-.1-.1-.1-.1-.2s0-.2.1-.3c0 0 .2-.3.4-.5.1-.1.2-.3.3-.4.1-.2.2-.4.1-.6-.1-.3-.7-1.8-.9-2.2 0-.1-.1-.1-.3-.2h-.6c-.1 0-.2.1-.3.1h-.1c-.1.1-.2.2-.3.2-.1.2-.2.3-.3.4-.4.5-.7 1.1-.7 1.7 0 .5.1.9.3 1.3l.1.2c.5 1.1 1.2 2 2.1 2.9l.2.2.5.5c1.2 1 2.6 1.8 4.1 2.2.2.1.4.1.6.1h.6c.3 0 .6-.1.9-.2.2-.1.3-.1.4-.2l.1-.1.3-.3.3-.3c.1-.2.2-.5.2-.8v-.4c0-.1-.1-.2-.2-.2z"/>
        </g>
    </symbol>
    <symbol id="worksheet" viewBox="0 0 96 96">
        <path d="M17.608 6.068C11.75 6.068 7 10.827 7 16.698v60.74c0 5.87 4.75 10.63 10.608 10.63h60.62c5.858 0 10.608-4.76 10.608-10.63V63.265a4.551 4.551 0 0 0-4.547-4.555 4.551 4.551 0 0 0-4.546 4.555v14.173c0 .839-.679 1.519-1.516 1.519H17.608c-.837 0-1.515-.68-1.515-1.519v-60.74c0-.84.678-1.52 1.515-1.52h30.31a4.551 4.551 0 0 0 4.546-4.555 4.551 4.551 0 0 0-4.546-4.555h-30.31Zm64.618 4.87a10.592 10.592 0 0 0-14.14.376l-38.621 36.51a10.632 10.632 0 0 0-2.812 4.455l-1.386 4.282c-2.841 8.785 6.08 16.773 14.473 12.958l5.004-2.273a10.606 10.606 0 0 0 2.898-1.95l38.03-35.949c4.6-4.35 4.404-11.742-.421-15.84l-3.025-2.57Zm-7.9 7.003a1.513 1.513 0 0 1 2.02-.053l3.026 2.569a1.52 1.52 0 0 1 .06 2.263l-38.03 35.95c-.121.114-.26.209-.413.278l-5.004 2.274c-1.2.545-2.474-.596-2.068-1.852l1.386-4.282a1.52 1.52 0 0 1 .401-.636l38.623-36.51Zm2.02-.053a1.513 1.513 0 0 0-2.02.053l-38.622 36.51a1.52 1.52 0 0 0-.401.637l-1.386 4.282c-.406 1.256.869 2.397 2.068 1.852l5.004-2.274c.152-.07.292-.163.414-.279l38.029-35.95a1.52 1.52 0 0 0-.06-2.262l-3.026-2.57Z"/>
    </symbol>
    <symbol id="yandex-circle">
        <g fill="none">
            <circle cx="12" cy="12" r="12" fill="#FC3E1E"/>
            <path d="M14.118 5.164H12.83c-2.353 0-3.6 1.154-3.6 2.852 0 1.931.858 2.834 2.623 3.979l1.456.94-4.189 6.055H6l3.76-5.414c-2.164-1.484-3.381-2.93-3.381-5.395C6.379 5.096 8.593 3 12.811 3H17v16h-2.882V5.164Z"
                  fill="#fff"/>
        </g>
    </symbol>
    <symbol id="yandex-gray" viewBox="0 0 24 24">
        <path d="M11.55 1.434c5.826 0 10.55 4.723 10.55 10.55v.033c0 5.826-4.724 10.55-10.55 10.55C5.723 22.566 1 17.842 1 12.016v-.034c0-5.826 4.723-10.55 10.55-10.55Z"
              stroke="#747474" fill="none" stroke-width="2"/>
        <path d="M13.178 18.952h2.412V5.072h-3.51c-3.529 0-5.383 1.817-5.383 4.494 0 2.136 1.016 3.394 2.832 4.692l-3.152 4.693H8.99L12.5 13.7l-1.217-.819c-1.476-.998-2.193-1.777-2.193-3.454 0-1.479 1.036-2.477 3.01-2.477h1.078v12.003Z"/>
    </symbol>
    <symbol id="yandex" viewBox="0 0 11 22">
        <path d="m6.3 13.5-3.6 8H0l4-8.6C2.1 12 .9 10.3.9 7.1.9 2.7 3.7.5 7.1.5h3.4v21H8.2v-8H6.3zM8.2 2.4H7c-1.8 0-3.6 1.2-3.6 4.7 0 3.4 1.6 4.5 3.6 4.5h1.2V2.4z"/>
    </symbol>
    <symbol id="youtube" viewBox="0 0 24 24">
        <path fill-rule="evenodd"
              d="M22.691 4.378c.373.4.642.896.78 1.44.792 3.418.609 8.814.014 12.363a3.29 3.29 0 0 1-.778 1.44c-.373.4-.837.688-1.346.835C19.5 21 12.003 21 12.003 21s-7.496 0-9.358-.544a2.977 2.977 0 0 1-1.345-.834 3.29 3.29 0 0 1-.779-1.44C-.276 14.778-.058 9.378.506 5.834a3.29 3.29 0 0 1 .778-1.44c.373-.4.837-.687 1.346-.835C4.492 3.016 11.988 3 11.988 3s7.496 0 9.358.544c.509.147.973.435 1.345.834ZM15 12l-6 3V9l6 3Z"/>
    </symbol>
    <symbol id="zen" viewBox="0 0 16 16">
        <path d="M9.35 9.35C8.25 10.485 8.175 11.9 8.075 15c2.89 0 4.885-.01 5.915-1.01 1-1.03 1.01-3.12 1.01-5.915-3.1.1-4.515.175-5.65 1.275ZM7.925 15c-2.89 0-4.885-.01-5.915-1.01C1.01 12.96 1 10.87 1 8.075c3.1.1 4.515.175 5.65 1.275 1.1 1.135 1.175 2.55 1.275 5.65ZM6.65 6.65C5.515 7.75 4.1 7.825 1 7.925 1 5.13 1.01 3.04 2.01 2.01 3.04 1.01 5.04 1 7.925 1c-.1 3.1-.175 4.515-1.275 5.65ZM8.075 1c.095 3.1.175 4.515 1.275 5.65 1.135 1.1 2.55 1.175 5.65 1.275 0-2.795-.01-4.885-1.01-5.915C12.96 1.01 10.965 1 8.075 1Z"/>
    </symbol>
</svg>